<?xml version="1.0" encoding="UTF-8"?>
<svg id="Layer_2" data-name="Layer 2" xmlns="http://www.w3.org/2000/svg" viewBox="0 0 106.24 115.66">
  <defs>
    <style>
      .cls-1 {
        fill: #fff;
        stroke: #6a49e7;
        stroke-miterlimit: 10;
        stroke-width: 2.46px;
      }
    </style>
  </defs>
  <g id="tracés">
    <path class="cls-1" d="M49.13,2.31C39.09,9.67,11.33,32.15,3.38,38.6c-1.36,1.11-2.15,2.77-2.15,4.52v61.55c0,4.25,3.34,7.76,7.59,7.93,2.45.1,5.63.17,9.72.17,6,0,10.13-.06,12.89-.13,2.7-.07,4.12-2.36,4.82-4.97,2.37-8.73.56-30.84,2.31-35.28,1.32-3.36,28.68-3.36,29.96-.96,2.45,4.59,0,38.13,3.36,41.01s31.26,2.39,32.4.04c1.64-3.36.08-49.28-.39-67.61-.13-5.11-3.65-6.7-7.73-9.77L55.83,2.37c-1.98-1.49-4.7-1.52-6.7-.05Z"/>
  </g>
</svg>