<?xml version="1.0" encoding="UTF-8"?>
<svg id="Layer_2" data-name="Layer 2" xmlns="http://www.w3.org/2000/svg" viewBox="0 0 127.23 111.89">
  <defs>
    <style>
      .cls-1 {
        stroke-width: 2.5px;
      }

      .cls-1, .cls-2 {
        fill: #fff;
        stroke: #6a49e7;
        stroke-miterlimit: 10;
      }

      .cls-2 {
        stroke-width: 2.71px;
      }
    </style>
  </defs>
  <g id="tracés">
    <g>
      <path class="cls-2" d="M63.99,17.85S89.09-4.78,125.87,3.35v89.82s-48.09-2.48-60.82,16.62c-8.13-7.78-36.77-22.16-62.94-19.33C2.81,50.5,1.39,1.42,1.39,1.42c0,0,42.44-1.96,62.59,16.43Z"/>
      <path class="cls-1" d="M63.96,16.54S87.07-4.3,120.93,3.19v82.68s-44.27-2.28-55.99,15.3c-7.49-7.16-33.85-20.4-57.94-17.8C7.65,46.59,6.34,1.41,6.34,1.41c0,0,39.06-1.8,57.62,15.13Z"/>
      <line class="cls-2" x1="63.96" y1="16.54" x2="64.93" y2="101.17"/>
    </g>
  </g>
</svg>