<?xml version="1.0" encoding="UTF-8"?>
<svg id="Layer_2" data-name="Layer 2" xmlns="http://www.w3.org/2000/svg" viewBox="0 0 289 289">
  <defs>
    <style>
      .cls-1 {
        fill: #7a430f;
        stroke-width: 9px;
      }

      .cls-1, .cls-2 {
        stroke: #fff;
        stroke-miterlimit: 10;
      }

      .cls-2 {
        fill: #f9cb95;
        stroke-width: 5px;
      }
    </style>
  </defs>
  <g id="anneaux">
    <g>
      <path class="cls-1" d="M144.5,284.5c77.33,0,140-62.68,140-140S221.83,4.5,144.5,4.5,4.5,67.18,4.5,144.5s62.67,140,140,140Z"/>
      <path class="cls-2" d="M42.76,206.7c-12.86.88-22.1-4.03-28.84-12,2.83,7.29,6.41,14.15,10.32,20.79,10.08,3.78,20.83,5.37,33.27-3.56-6.08-2.97-11.55-5.43-14.75-5.22ZM211.08,21.55c.57,4.29-2.45,6.55-9.85,4.75-12.49-3.04-23.47,10.16-29.73,21.19-12.39,21.69-63.57,46.13-63.57,27.32-.05-8.89-45.19,11.04-50.99,2.11-5.47-8.43-21.77-5.18-25.12-15.29-15.31,20.74-24.55,45.31-26.72,70.98,4.95,9.4,11.31,16.78,17.67,19.98,8.67,4.32,48.77,20,54.66,9.99,9.75-16.7,68.42-4.88,67.05-13.67-2.69-16.82,31.76-3.01,44.15-24.69,6.31-11.04,20.03-19.51,32.56-16.47,14.61,3.55,32.66-21.51,31.29-52.31-11.5-13.85-25.59-25.36-41.42-33.89ZM252.69,233.3c-4.43,2.17-8.76,3.84-12.72,4.27-29.45,3.18-35.81,26.25-55.56,22.29-10.18-2.04-24.03,15.89-39.91,16.98-10.46.77-20.92,2.12-31.24,4.03,10.27,2.38,20.73,3.59,31.24,3.63,43.59,0,82.51-19.94,108.19-51.2Z"/>
    </g>
  </g>
</svg>