<?xml version="1.0" encoding="UTF-8"?>
<svg id="Layer_2" data-name="Layer 2" xmlns="http://www.w3.org/2000/svg" viewBox="0 0 190.55 348.07">
  <defs>
    <style>
      .cls-1, .cls-2, .cls-3, .cls-4, .cls-5, .cls-6, .cls-7, .cls-8, .cls-9, .cls-10, .cls-11 {
        stroke-miterlimit: 10;
      }

      .cls-1, .cls-4 {
        stroke: #2d248a;
      }

      .cls-1, .cls-4, .cls-7, .cls-8 {
        stroke-width: .92px;
      }

      .cls-1, .cls-12 {
        fill: #2d248a;
      }

      .cls-2, .cls-3, .cls-5, .cls-6, .cls-7, .cls-8, .cls-9, .cls-10 {
        stroke: #000;
      }

      .cls-2, .cls-9, .cls-11 {
        fill: none;
      }

      .cls-2, .cls-11 {
        stroke-width: 1.14px;
      }

      .cls-3, .cls-4, .cls-8 {
        fill: #821533;
      }

      .cls-13 {
        fill: #eff0d1;
        opacity: .46;
      }

      .cls-13, .cls-12, .cls-14, .cls-15, .cls-16, .cls-17, .cls-18, .cls-19 {
        stroke-width: 0px;
      }

      .cls-5 {
        fill: #ff9720;
      }

      .cls-5, .cls-9, .cls-10 {
        stroke-width: .57px;
      }

      .cls-12 {
        opacity: .25;
      }

      .cls-14 {
        opacity: .18;
      }

      .cls-14, .cls-16, .cls-17, .cls-18 {
        fill: #fff;
      }

      .cls-15 {
        fill: #000;
      }

      .cls-15, .cls-18 {
        opacity: .15;
      }

      .cls-6 {
        fill: #ffee50;
        stroke-width: .47px;
      }

      .cls-7 {
        fill: #ffd90d;
      }

      .cls-16 {
        opacity: .16;
      }

      .cls-10 {
        fill: #ffa93a;
      }

      .cls-17 {
        opacity: .22;
      }

      .cls-11 {
        stroke: #131d80;
      }

      .cls-19 {
        fill: #a8c4f0;
      }
    </style>
  </defs>
  <g id="tracés">
    <g>
      <g>
        <path class="cls-19" d="M112.14,157.86l-7.98-44.12-13.48-31.99-12.51,29.97-9.88,54.71s-6.1-111.41-5.06-113.09l1.55-5.4h49.75l3.3,7.94-5.68,101.99Z"/>
        <path class="cls-1" d="M88.71.71l-9.43,12.82-5.99,10.6h31.89l-4.62-8.73c-.59-1.01-7.01-9.64-7.81-10.5l-4.04-4.19Z"/>
        <path class="cls-13" d="M69.61,164.85c-1.16-.12-.05,24.64-20.04,50.77-6.13,8.02-16.49,18.22-21.94,23.14-9.93,8.95-16.7,21.85-16.7,21.85l52.53-.38,5.66-22.64,3.25-34.67-2.75-38.06Z"/>
        <path class="cls-4" d="M90.68,81.75l-5.38,12.17c-1.82,4.2-6.23,15.18-8.12,21.26-.83,2.67-1.86,5.26-2.41,8l-2,12.35,3.17-1.43c2.31-1.04,4.76-1.74,7.29-1.97,8.66-.8,18.29.5,18.17.49l6.94,2.52-2.64-15.59c-1.65-4.6-5.23-17.49-7.02-21.55-2.48-5.6-3.59-7.88-4.09-9l-3.91-7.25Z"/>
        <rect class="cls-19" x="112.14" y="158.69" width="22.74" height="11.13"/>
        <rect class="cls-19" x="45.33" y="158.23" width="22.74" height="11.13"/>
        <path class="cls-19" d="M57.86,203.66l-12.48,16.97-.26-50.41h22.74l.44,1.44c-.07.45-2.46,11.75-2.56,12.19-1.99,8.46-2.46,10.76-7.87,19.8Z"/>
        <path class="cls-19" d="M126.12,207.44l8.98,10.91v-47.55h-21.52l.68,1.44c.07.45,2.11,10.61,2.21,11.04,1.99,8.46,5.48,14.66,9.64,24.15Z"/>
        <polygon class="cls-4" points="189.73 275.01 .86 275.01 10.29 260.92 181 260.92 189.73 275.01"/>
        <polygon class="cls-1" points="55.98 51.16 45.77 72.11 67.66 72.11 45.77 72.11 67.66 72.11 55.98 51.16"/>
        <polygon class="cls-1" points="122.79 51.09 112.58 72.04 134.47 72.04 112.58 72.04 134.47 72.04 122.79 51.09"/>
        <rect class="cls-19" x="112.14" y="73.34" width="22.74" height="23.23"/>
        <rect class="cls-19" x="112.14" y="97.54" width="22.74" height="23.55"/>
        <rect class="cls-19" x="112.14" y="121.92" width="22.74" height="35.95"/>
        <rect class="cls-19" x="45.33" y="73.34" width="22.74" height="23.23"/>
        <rect class="cls-19" x="45.33" y="97.24" width="22.74" height="23.85"/>
        <rect class="cls-19" x="45.33" y="121.64" width="22.74" height="35.67"/>
        <path class="cls-19" d="M114.34,47.38h-49.21l1.77-6.79c.67-2.59,1.53-5.13,2.57-7.59l3.35-7.93h33.11l5.36,12.36,3.05,9.96Z"/>
        <path class="cls-13" d="M111.94,163.3l-9.7-2.5c-7.51-1.93-15.38-2.01-22.93-.21l-9.18,2.18,2.7-26.74,4.64-1.78c1.43-.7,2.97-1.18,4.54-1.45,8.98-1.5,10.81-1.72,17.47-.49,1.82.34,3.6.85,5.32,1.53l3.87,2.07,3.27,27.38Z"/>
        <path class="cls-13" d="M109.58,203.09l-37.22-.18-2.2-39.19s4.6-1.66,9.86-2.94c8.85-2.16,12.11-1.68,18.78-.45,1.82.34,5.56,1.05,7.28,1.73l5.89,1.63-2.39,39.4Z"/>
        <polygon class="cls-13" points="72.24 203.52 69.91 237.74 111.7 237.12 109.09 203.52 72.24 203.52"/>
        <path class="cls-13" d="M112.33,164.85c1.16-.12.05,24.64,20.04,50.77,6.13,8.02,21.11,16.52,26.73,21.23,13.03,10.93,21.9,24.07,21.9,24.07l-63.99-.71-5.02-21.92-2.42-35.38,2.75-38.06Z"/>
        <g>
          <g>
            <polyline class="cls-9" points="68.29 281.71 68.29 289.82 74.87 301.32 66.78 301.32 48.93 301.32 40.84 301.32 45.61 289.57 45.51 275.01"/>
            <polyline class="cls-9" points="45.15 221.2 45.11 215.7 45.11 72.71 55.99 50.44 62.63 62.41 68.29 72.62 68.29 171.67"/>
            <polyline class="cls-9" points="111.94 164.78 111.94 163.77 111.94 161.96 111.94 73.39 118.03 60.53 122.81 50.44 135.1 72.62 135.1 218.34"/>
            <polyline class="cls-9" points="135.1 275.01 135.1 289.82 141.7 301.32 133.59 301.32 115.75 301.32 107.65 301.32 111.44 292.02 111.44 292.01 111.68 291.42 112.43 289.57 112.38 282.44"/>
            <polygon class="cls-9" points="70.56 312.49 45.14 312.49 48.93 301.32 66.77 301.32 70.56 312.49"/>
            <polygon class="cls-9" points="137.38 312.49 111.96 312.49 115.75 301.32 133.59 301.32 137.38 312.49"/>
            <line class="cls-9" x1="72.09" y1="203.66" x2="72.05" y2="203.66"/>
            <line class="cls-9" x1="109.62" y1="203.66" x2="109.58" y2="203.66"/>
            <path class="cls-9" d="M62.63,62.41C64.45,27.32,88.71.71,88.71.71c18.65,17.72,26.63,47.19,29.32,59.82"/>
            <line class="cls-9" x1="96.12" y1="275.01" x2="95.92" y2="275.01"/>
            <line class="cls-9" x1="88.54" y1="275.01" x2="88.29" y2="275.01"/>
            <path class="cls-9" d="M118.37,275.01h71.35s0,.03-.03,0c-.68-.78-12.81-25.93-35.76-42.09-5.52-3.88-12.39-8.14-18.83-14.58-5.35-5.34-10.39-12.16-14.11-21.49-.64-1.6-1.25-3.26-1.83-4.95-3.27-9.58-5.6-20.37-7.22-29.93-2.51-14.82-3.32-26.73-3.32-26.73,0,0-2.56-27.13-17.94-53.48,0,0-16.25,31.84-18.22,54.46-.96,10.99-2.28,23.9-4.17,35.46-1.52,9.35-3.42,17.83-5.78,23.73-.73,1.84-1.52,3.43-2.35,4.72-4.24,6.56-8.85,13.71-15,21.08-3.74,4.49-8.03,9.05-13.16,13.62-13.56,12.08-31.13,40.19-31.13,40.19h63.89"/>
            <line class="cls-9" x1="80.69" y1="275.01" x2="78.27" y2="275.01"/>
            <line class="cls-9" x1="105.24" y1="275.02" x2="103.99" y2="275.02"/>
            <path class="cls-9" d="M109.58,203.66l.02-.31h0s2.34-38.57,2.34-38.57l.06-.98-.06-.03c-4.06-1.81-11.23-4.39-20.49-4.5-9.97-.12-17.65,2.67-21.78,4.53l2.4,39.54h0s.02.32.02.32"/>
            <path class="cls-9" d="M112,163.8c-3.63-1.6-12.85-4.46-21.16-4.53-8.7-.07-17.49,2.41-21.16,4.03l2.72-27c3.6-2.36,9.09-4.64,19.06-4.53,9.3.11,13.68,1.82,17.22,4.14l3.33,27.88Z"/>
            <path class="cls-9" d="M74.02,237.79c-1.33,0-4.03.14-4.35,0l2.38-34.13.02-.31.02-.27h37.48l.02.27.02.31,2.32,33.92c-2.67,0-.71.02-3.76.02"/>
            <path class="cls-9" d="M111.36,287.12c-.07.08-.15.16-.24.24"/>
            <path class="cls-9" d="M115.87,281.1c1.84-3.17,2.53-5.58,2.53-5.58,0,0-.24-15.5-4.97-30.16h0c-.83-2.58-1.31-5.3-1.49-7.78l-42.27.22s-1.61,3.78-2.98,9c-1.03,3.96-2.22,8.78-3.23,13.41h0"/>
            <path class="cls-7" d="M63.46,260.21s-.11,13.69,3.79,20.34c1.25,2.11,4.1,2.59,5.94.97,5.24-4.63,3.38-13.92,3.8-18.36.75-7.91,3.94-16.88,3.42-18.42-.71-2.07-9.64-.2-13.71,2.07l-3.23,13.41Z"/>
            <path class="cls-7" d="M114.38,247.4l-.95-2.06c-4.32-1.46-9.76-2.21-10.31-.61-.52,1.54.04,11.03.68,16.87.39,3.5-.2,11.47,3.41,16.4.38.51.76,1.02,1.17,1.49.62.73,1.27,1.41,1.95,2.01,1.67,1.47,4.17,1.23,5.54-.41l2.51-6.09-.75-14.8-3.09-12.11-.15-.71Z"/>
            <path class="cls-3" d="M92.33,248.19c-1.01,3.15-2.13,6.63-3.1,9.65-.45,1.41-.68,2.88-.68,4.36v21.24c0,2.06.33,4.11.98,6.07l2.81,8.5,2.81-8.5c.65-1.96.98-4.01.98-6.07v-20.97c0-1.61-.25-3.2-.74-4.73l-3.05-9.55Z"/>
            <g>
              <path class="cls-8" d="M88.29,291.91c-1.55.67-4.32,1.62-7.88,1.62-3.56,0-6.32-.95-7.88-1.62v-.85c0-9.92,5.84-17.95,15.76-17.95v18.8Z"/>
              <path class="cls-9" d="M88.05,286.78c-1.69-.71-3.27-.72-6.84-.31-7.16.82-8.52,3.27-8.52,3.27.47-9.27,11.3-8.11,15.35-7.53v4.56Z"/>
              <path class="cls-10" d="M78.73,287.04s1.71,2.44,9.32,2.7c-.05-2.54,0-2.97,0-2.97,0,0-2.28-1.26-9.32.26Z"/>
            </g>
            <g>
              <path class="cls-8" d="M95.92,291.91c1.55.67,4.32,1.62,7.88,1.62,3.56,0,6.32-.95,7.88-1.62v-.85c0-9.92-5.24-17.95-15.16-17.95l-.6,18.8Z"/>
              <path class="cls-9" d="M96.17,286.78c1.69-.71,3.27-.72,6.84-.31,7.16.82,8.52,3.27,8.52,3.27-.47-9.27-11.3-8.11-15.35-7.53v4.56Z"/>
              <path class="cls-10" d="M105.49,287.04s-1.71,2.44-9.32,2.7c.05-2.54,0-2.97,0-2.97,0,0,2.28-1.26,9.32.26Z"/>
            </g>
            <line class="cls-11" x1="72.98" y1="24.76" x2="106.3" y2="24.76"/>
            <line class="cls-11" x1="45.34" y1="72.71" x2="68.06" y2="72.71"/>
            <line class="cls-11" x1="112.16" y1="72.71" x2="134.88" y2="72.71"/>
            <line class="cls-11" x1="112.16" y1="97.09" x2="134.88" y2="97.09"/>
            <line class="cls-11" x1="112.16" y1="121.47" x2="134.88" y2="121.47"/>
            <line class="cls-11" x1="134.88" y1="170.23" x2="113.47" y2="170.23"/>
            <line class="cls-11" x1="134.85" y1="289.75" x2="112.43" y2="289.75"/>
            <path class="cls-2" d="M113,312.49c.35.5,1.33,1.12,6.69,1.34"/>
            <path class="cls-2" d="M129.81,313.87c4.9-.14,6.43-.54,6.72-1.37"/>
            <path class="cls-2" d="M46.09,312.49c.35.5,1.33,1.11,6.63,1.34"/>
            <path class="cls-2" d="M62.96,313.87c4.85-.14,6.36-.54,6.65-1.37"/>
            <line class="cls-11" x1="134.85" y1="286.29" x2="112.43" y2="286.29"/>
            <line class="cls-11" x1="134.85" y1="282.83" x2="112.43" y2="282.83"/>
            <line class="cls-11" x1="134.85" y1="279.37" x2="116.8" y2="279.37"/>
            <line class="cls-11" x1="67.91" y1="285.85" x2="45.49" y2="285.85"/>
            <line class="cls-11" x1="67.91" y1="282.39" x2="45.49" y2="282.39"/>
            <polyline class="cls-11" points="45.49 278.94 45.53 278.94 66.37 278.94"/>
            <line class="cls-11" x1="67.91" y1="289.75" x2="45.49" y2="289.75"/>
            <polyline class="cls-9" points="9.95 260.92 10.29 260.92 63.42 260.92"/>
            <polyline class="cls-9" points="117.01 260.92 181 260.92 181.58 260.92"/>
            <line class="cls-11" x1="112.16" y1="158.27" x2="134.88" y2="158.27"/>
            <line class="cls-11" x1="45.34" y1="96.68" x2="68.06" y2="96.68"/>
            <line class="cls-11" x1="45.34" y1="121.06" x2="68.06" y2="121.06"/>
            <line class="cls-11" x1="45.34" y1="169.82" x2="68.06" y2="169.82"/>
            <line class="cls-11" x1="45.34" y1="157.86" x2="68.06" y2="157.86"/>
            <line class="cls-11" x1="64.77" y1="47.38" x2="114.65" y2="47.38"/>
          </g>
          <path class="cls-5" d="M52.73,312.49c.15,7.49.93,35.29,4.85,35.29s5.11-27.8,5.36-35.29"/>
          <path class="cls-6" d="M53.61,312.49v2.28c.07,4.47.61,23.51,4.01,23.51s4.32-19,4.46-23.5v-2.29"/>
          <path class="cls-5" d="M129.86,312.49c-.01.4-.03.86-.05,1.37-.34,9.02-1.61,33.92-5.32,33.92s-4.61-24.97-4.8-33.95c-.02-.49-.03-.95-.03-1.34"/>
          <path class="cls-6" d="M120.53,312.49v2.28c.07,4.47.61,23.51,4.01,23.51s4.32-19,4.46-23.5v-2.29"/>
        </g>
        <path class="cls-13" d="M69.91,238.15s-2.1,4.77-2.54,7.61c2.91-1.42,8.5-3.13,12.15-2.31,1.33.3,1.58,2.08.93,5.41-1.26,6.43-2.59,11.41-2.59,11.41l10.09-.04,4.38-13.35s4.59,11.14,4.25,13.52c2.34-.07,6.55.07,6.55.07,0,0-1.12-16.39-.22-17.15s7.56-.01,9.87,1.25c-.75-3.58-1.42-6.41-1.42-6.41h-41.45Z"/>
        <polygon class="cls-19" points="65.66 278.42 45.74 278.42 45.74 275.51 64.69 275.51 65.66 278.42"/>
        <polygon class="cls-19" points="67.52 281.9 45.63 281.9 45.63 279.37 66.24 279.37 67.52 281.9"/>
        <polygon class="cls-19" points="67.87 285.35 45.69 285.35 45.78 282.82 67.95 282.82 67.87 285.35"/>
        <rect class="cls-19" x="45.74" y="286.29" width="22.17" height="2.9"/>
        <polygon class="cls-19" points="74.72 301.05 41.13 301.32 45.63 290.13 68.19 290.13 74.72 301.05"/>
        <polygon class="cls-19" points="70.44 312.12 45.69 312.12 49.09 301.48 66.59 301.62 70.44 312.12"/>
        <polygon class="cls-19" points="117.51 278.84 134.85 278.84 134.73 275.52 118.8 275.52 117.51 278.84"/>
        <polygon class="cls-19" points="115.28 282.2 134.76 282.36 134.76 279.83 116.8 279.83 115.28 282.2"/>
        <polygon class="cls-19" points="134.76 285.84 112.58 285.84 112.67 283.32 134.84 283.32 134.76 285.84"/>
        <rect class="cls-19" x="112.62" y="286.45" width="22.17" height="2.9"/>
        <polygon class="cls-19" points="141.56 300.87 107.97 301.14 112.47 289.96 135.04 289.96 141.56 300.87"/>
        <polygon class="cls-19" points="137.28 311.95 112.54 311.95 115.94 301.3 133.43 301.45 137.28 311.95"/>
      </g>
      <path class="cls-14" d="M91.92,6.25s4.46,5.42,7.46,11.22c.82,1.58,2.49,3.53,1.08,4.24-1.29.65-2.17.02-3.26-.9-1.62-1.36-2.3-3.4-2.69-5.51-.09-.46-.17-.93-.3-1.38l-2.29-7.67Z"/>
      <path class="cls-12" d="M102.47,33.19c1.19,2.73,1.27,3.27,2.7,5.53.93,1.47,2.98,5.61,4.18,5.74,2.74.29.17-6.05-.41-9.47s-2.32-7.35-5.93-6.05c-.76.27-1.32,2.48-.54,4.25Z"/>
      <path class="cls-16" d="M96.31,95.56c-.96-2.87-5.31-1.94-4.93,1.06,0,.04,3.36,9.65,4.26,12.02.83,2.17,4.04,8.15,5.22,7.89.92-.2-2.56-15.06-4.54-20.97Z"/>
      <path class="cls-18" d="M129.82,70.6c-.49-.33-.44-1.02.06-1.33.26-.16-.03-1.13-.03-1.43,0-.88,1.86-.78,1.96,0s1.38,4.47-.69,3.52c-.46-.21-.91-.5-1.3-.76Z"/>
      <path class="cls-15" d="M163.33,243.84s-3.32,1.63-1.57,3.13c.88.75,2.9,1.73,4.6,3.29s4.76,8.9,6.46,8.12-1.96-6.26-2.97-7.89-3.91-6.51-6.52-6.65Z"/>
      <path class="cls-15" d="M123.57,210.5s2.68-1.2,3.67.89c.5,1.05.91,3.25,1.98,5.3s7.36,6.91,6.16,8.35-5.54-3.52-6.85-4.92-5.51-7.06-4.97-9.62Z"/>
      <path class="cls-17" d="M130.2,99.83s-2.87,2.48-1.7,3.78,1.52,2.96,2.39,3.57,1.79-.18,2.05-1.09.65-6.26.65-6.26c0,0-2.4-1.02-3.39,0Z"/>
      <path class="cls-17" d="M130.2,74.18s-2.87,2.48-1.7,3.78,1.52,2.96,2.39,3.57,1.79-.18,2.05-1.09.65-6.26.65-6.26c0,0-2.4-1.02-3.39,0Z"/>
      <path class="cls-17" d="M123.07,151.83s-1.06,1.96-.12,2.64,2.02,2.92,3,2.34,1.73-4,1.36-4.98-.67-1.86-1.75-1.96-2.21,1.32-2.49,1.96Z"/>
      <path class="cls-17" d="M130.85,307.49c-.05,1.17,2.45,3.12,3.42,2.54s-.15-3.81-.53-4.79.5-2.16-.58-2.25-2.23,2.55-2.32,4.5Z"/>
      <path class="cls-17" d="M134.44,161.92s-2.93.76-2.74,1.88.38,3.34,1.36,3.6,1.37-5.48,1.37-5.48Z"/>
      <path class="cls-15" d="M104.65,139.25s.67,1.72,1.21.87.76-2.38.4-3.31-1.56-.96-1.87-1,.02,2.93.26,3.43Z"/>
      <path class="cls-15" d="M105.87,164.85s-.26,3.55,1.04,4.52,1.87-.66,2.66-1.7,1.12-2.57-.51-3.41-3.18-.07-3.2.59Z"/>
    </g>
  </g>
</svg>