<?xml version="1.0" encoding="UTF-8"?>
<svg id="Layer_2" data-name="Layer 2" xmlns="http://www.w3.org/2000/svg" viewBox="0 0 228.63 417.97">
  <defs>
    <style>
      .cls-1 {
        fill: #62549d;
        opacity: .62;
      }

      .cls-1, .cls-2, .cls-3 {
        stroke-width: 0px;
      }

      .cls-4, .cls-2 {
        fill: #2d2453;
      }

      .cls-4, .cls-5, .cls-6, .cls-7 {
        stroke: #614ad3;
        stroke-miterlimit: 10;
      }

      .cls-5, .cls-7 {
        fill: none;
      }

      .cls-6 {
        fill: #fff;
      }

      .cls-3 {
        fill: #474278;
      }

      .cls-7 {
        stroke-width: .25px;
      }
    </style>
  </defs>
  <g id="tracés">
    <g>
      <path class="cls-2" d="M176.86,105.19c.06-.09.1-.16.15-.25,4.88-10.58,2.71-29.77,0-32.75-2.72-2.98-16.28-4.73-16.28-4.73l-96.41,2.49c-6.94,1.09-15.58,6.55-15.58,6.55,0,0,.34,5.63,0,15.38-.13,3.81,1.4,7.74,3.32,11.1"/>
      <path class="cls-6" d="M53.34,102.2c2.98-3.09,30.35-15.88,56.27-15.88,46.63,0,57.51,13.48,57.51,13.48,0,0,35.11,21.55,27.83,32.13,2.77.26,13.56,18.47,10.92,20.84-6.28,5.63,12.24,17.61,4.96,21.87,8.93,8.56,12.9,42.83,8.6,46.7,5.62,1.55,18.72,38.19-4.96,52.16-13.56-4.63-4.96-16.87-4.96-16.87,0,0,6.28-10.58-2.32-13.89-6.09,2.02-4.14,4.87-3,6.77,1.49,2.48,1.57,5.64.22,8.2-.55,1.04-3.01,1.69-3.83,1.66-2.65-.09-8.93-7.37-7.28-14.32,1.65-6.95,2.65-8.34,6.28-14.1-7.94-6.41-27.79-46.41-23.82-51.05-5.62-4.98-9.59-17.18-9.59-17.18,0,0-1.11-10.48-2.79-17.4-.22-.91-1.55-.75-1.55.18,0,12.5,1.04,25.47,1.04,25.47l-1.32,21.81,1.74,8.73c.44,2.21.71,4.46.8,6.71l.43,10.61s7.11,14.72,4.38,19.68c2.73,2.73,8.68,13.64,6.95,18.11,2.73,4.71,5.71,16.87,2.98,19.35,4.71.74,5.46,45.65.25,57.31-5.21,11.66-8.43,14.95-5.21,27.07,3.23,12.12,1.74,16.09,6.7,17.58,4.96,1.49,15.63,13.15,15.63,13.15,0,0,13.65,6.5-.74,20.25-14.39,13.75-36.47.6-38.7-3.61-2.23-4.22-23.99-9.98-21.76-20.65,2.23-10.67.99-47.63.99-47.63,0,0-4.96-12.65-3.97-18.11.99-5.46-1.49-38.45-1.49-38.45,0,0-1.24-16.62-4.96-17.61s-13.67.82-13.67.82l-3.2,20.51s1.98,35.48-.99,38.45.99,13.4.99,13.4l-1.74,17.12s.25,25.55-2.48,32.5c-1.98,5.05-3.89,6.08-6.06,10.61-.94,1.95-4.82,5.11-6.61,6.33-6.34,4.29-4.13,8.44-29.91,6.44-19.1-1.48-18.77-22.08-9.59-31.01,9.18-8.93,17.61-22.06,17.61-22.06l-.74-27.38s-11.16-15.55-7.19-33.17c3.97-17.61,1.74-19.35,3.97-23.57-2.98-4.96,1.74-14.89,1.74-14.89-2.73-9.18.5-16.14,2.23-17.87-1.98-7.69,1.24-21.14,1.24-21.14l-1.58-5.12c-1.67-5.42-1.96-11.16-.85-16.72l-1.06-13.7c-.04-.46-.06-.9-.08-1.33-.45-10.29.55-20.59,2.52-30.7l1.3-6.67s.25-4.1-2.73-3.6-2.69,10.62-7.15,14.84c-1.49,4.96-.03,7.03-5,10.75-1.49,8.43-3.47,12.4-3.47,12.4l-5.96,13.36-2.98,11.65s-8.75,14.04-6.45,22.33c2.03,7.32,3.14,10.31,3.75,18.28.53,6.86,4.19,12.24-3.01,11.49-1.82-.19-3.2-.78-4.26-1.6-1.75-1.36-1.12-2.84-3.4-8.51-.51-1.26-.95-2.23-1.9-3.14-.31-.29-1.6-1.53-3.47-1.8-3.71-.54-7,3.1-7.8,5.63-.05.16-.27,1.04-.3,2.24-.02.79.05,1.72.32,2.68.27.98.74,1.82,1.39,2.85.32.5.67,1.04,1.07,1.65,2.23,3.47,5.95,10.42.5,12.28-5.02,1.71-21.53-19.65-19.94-28.32.32-1.72.34-3.46.44-5.21.31-5.71,5.11-12.5,5.11-12.5l5.95-11.66s-2.48-5.15-2.48-9.52-.5-4.12,3.47-6.85c-.25-2.98-.5-5.95,2.48-8.93-.5-4.47,5.21-12.06,5.21-12.06,0,0,2.17-7.19,5.89-9.92.4-7.66,1.97-24.95,5.07-28.11,1.51-8.29,12.41-24.44,21.59-34.64Z"/>
      <path class="cls-2" d="M63.46,284.32c4.28,1.8,13.73,3.81,20.24,3.45-.39,7.38-.2,31.66-1.94,43.22-.42,2.8.29,8.93-2.5,8.49l-7.13.02c-2.62-.41-7.68-1.22-7.66-3.87.09-10.91-9.09-28.48-3.2-50.28.26-.96,1.27-1.42,2.19-1.03Z"/>
      <path class="cls-2" d="M182.98,284.32c-4.28,1.8-13.73,3.81-20.24,3.45.39,7.38.2,31.66,1.94,43.22.42,2.8-.29,8.93,2.5,8.49l7.13.02c2.62-.41,7.68-1.22,7.66-3.87-.09-10.91,9.09-28.48,3.2-50.28-.26-.96-1.27-1.42-2.19-1.03Z"/>
      <path class="cls-6" d="M167.11,53.3c0,29.16-23.64,52.8-52.8,52.8s-52.8-23.64-52.8-52.8S85.16.5,114.31.5s52.8,23.64,52.8,52.8Z"/>
      <path class="cls-3" d="M152.83,57.27c0,21.27-17.24,38.51-38.51,38.51s-38.51-17.24-38.51-38.51,0-34.43,38.51-34.43,38.51,16.05,38.51,34.43Z"/>
      <path class="cls-1" d="M118.88,39.18c.94-4.41,4.6-7.73,9.06-8.35,3.58-.5,7.88-.38,11.29,1.85,7.19,4.71,9.68,38.7,0,45.65-9.68,6.95-21.34-33.74-20.59-37.96.07-.41.15-.8.23-1.19Z"/>
      <path class="cls-4" d="M141.38,162.73c-7.19,1.51-16.25,2.79-26.74,2.81-10.78.03-20.07-1.27-27.38-2.81l-3.6-38.83c8.08-1.76,18.39-3.29,30.4-3.31,12.24-.02,22.75,1.52,30.93,3.31l-3.6,38.83Z"/>
      <path class="cls-5" d="M17.45,252.55l2.01-2.43c.54-.65,1.13-1.25,1.79-1.79,1.32-1.09,3.02-2.32,4.94-2.2,1.06.07,2.1-.35,2.95-.98l.24-.18"/>
      <path class="cls-5" d="M204.31,244.13l1.01.46c.5.23.99.49,1.45.79l2.33,1.78c.41.31.8.66,1.16,1.04l1.43,1.51"/>
      <path class="cls-5" d="M70.9,219.54c13.74,2.32,26.73,4.11,45.31,4.16,18.81.05,35.08-1.64,49.05-3.94"/>
      <path class="cls-5" d="M168.28,228.56c-15.71,1.54-33.68,2.82-52.16,2.91-18.13.09-30.98-.65-46.4-1.98"/>
      <polygon class="cls-5" points="128.5 231.2 104.31 231.2 103.75 223.55 129.04 223.46 128.5 231.2"/>
      <path class="cls-7" d="M141.3,282.46c1.13.12,9.11,2.78,32.88-2.48"/>
      <path class="cls-7" d="M71.62,281.94c.88.09,7.1,2.17,25.62-1.93"/>
      <path class="cls-7" d="M73.66,341.99c1.13.12,9.11,2.78,32.88-2.48"/>
      <path class="cls-7" d="M71.5,343c1.13.12,9.11,2.78,32.88-2.48"/>
      <path class="cls-7" d="M145.97,380.22c.87-.1,7.27.58,24.16-7.28"/>
      <path class="cls-7" d="M70.9,371.26c.76.31,5.74,3.77,23.26,4.95"/>
      <path class="cls-7" d="M58.09,390.19c.76.31,5.74,3.77,23.26,4.95"/>
      <path class="cls-7" d="M58.09,391.36c.63.26,4.77,3.13,19.3,4.11"/>
      <path class="cls-7" d="M164.9,399.67c.82-.1,6.86.49,22.71-7.05"/>
      <path class="cls-7" d="M165.47,400.69c.68-.08,5.69.4,18.85-5.85"/>
      <path class="cls-7" d="M141.61,283.85c1.13.12,9.11,2.78,32.88-2.48"/>
      <path class="cls-7" d="M71.58,281.58c.93.28,7.15,3.8,27.83,3.28"/>
      <path class="cls-2" d="M105.51,251.25c2.62,1.73,5.33,3.35,8.1,4.83-2.35-1.63-4.7-3.25-7.06-4.88,4.87,3.46,10.19,6.31,15.77,8.45"/>
      <path class="cls-2" d="M132.48,248.71c-2.73,3.17-6.16,5.74-9.98,7.47"/>
      <path class="cls-2" d="M131.47,251.46c-3.34,2.17-6.82,4.12-10.4,5.86,3.81-2.87,7.61-5.74,11.42-8.61"/>
    </g>
  </g>
</svg>