<?xml version="1.0" encoding="UTF-8"?>
<svg id="Layer_2" data-name="Layer 2" xmlns="http://www.w3.org/2000/svg" viewBox="0 0 246.59 417.97">
  <defs>
    <style>
      .cls-1 {
        fill: #62549d;
        opacity: .62;
      }

      .cls-1, .cls-2, .cls-3 {
        stroke-width: 0px;
      }

      .cls-4, .cls-2 {
        fill: #2d2453;
      }

      .cls-4, .cls-5, .cls-6, .cls-7 {
        stroke: #614ad3;
        stroke-miterlimit: 10;
      }

      .cls-5, .cls-7 {
        fill: none;
      }

      .cls-6 {
        fill: #fff;
      }

      .cls-3 {
        fill: #474278;
      }

      .cls-7 {
        stroke-width: .25px;
      }
    </style>
  </defs>
  <g id="tracés">
    <g>
      <path class="cls-2" d="M194.81,105.19c.06-.09.1-.16.15-.25,4.88-10.58,2.71-29.77,0-32.75-2.72-2.98-16.28-4.73-16.28-4.73l-96.41,2.49c-6.94,1.09-15.58,6.55-15.58,6.55,0,0,.34,5.63,0,15.38-.13,3.81,1.4,7.74,3.32,11.1"/>
      <path class="cls-6" d="M53.32,155.58c4.26-.71,15.68-3.48,15.55-4.3,4.96-3.72,6.9-3.24,8.39-8.21,4.47-4.22,5.46-13.05,8.43-13.54s3.66,16.6,3.66,16.6l-1.36,7c-1.95,10.02-2.91,20.23-2.45,30.43.02.41.04.83.08,1.27l1.06,13.7c-1.12,5.56-.82,11.3.85,16.72l1.58,5.12s-3.22,13.45-1.24,21.14c-1.74,1.74-4.96,8.69-2.23,17.87,0,0-4.71,9.92-1.74,14.89-2.23,4.22,0,5.95-3.97,23.57-3.97,17.61,7.19,33.17,7.19,33.17l.74,27.38s-8.43,13.13-17.61,22.06c-9.18,8.93-9.51,29.54,9.59,31.01,27.45,2.12,23.17-2.72,31.26-7.28,1.92-1.08,4.32-3.53,5.28-5.52,2.17-4.5,4.07-5.54,6.05-10.58,2.73-6.95,2.48-32.5,2.48-32.5l1.74-17.12s-3.97-10.42-.99-13.4c2.98-2.98.99-38.45.99-38.45l3.2-20.51s9.94-1.81,13.67-.82,4.96,17.61,4.96,17.61c0,0,2.48,33,1.49,38.45-.99,5.46,3.97,18.11,3.97,18.11,0,0,1.24,36.96-.99,47.63-2.23,10.67,19.53,16.43,21.76,20.65s24.31,17.37,38.7,3.61c14.39-13.75.74-20.25.74-20.25,0,0-10.67-11.66-15.63-13.15-4.96-1.49-3.47-5.46-6.7-17.58-3.22-12.12,0-15.41,5.21-27.07,5.21-11.66,4.47-56.56-.25-57.31,2.73-2.48-.25-14.64-2.98-19.35,1.74-4.47-4.22-15.38-6.95-18.11,2.73-4.96-4.38-19.68-4.38-19.68l-.43-10.61c-.09-2.26-.36-4.5-.8-6.71l-1.74-8.73,1.32-21.81s-1.03-12.97-1.04-25.47c0-.94,1.33-1.09,1.55-.18,1.68,6.92,2.79,17.4,2.79,17.4,0,0,3.97,12.2,9.59,17.18-3.97,4.65,15.88,44.64,23.82,51.05-3.64,5.75-4.63,7.15-6.28,14.1-1.65,6.95,4.63,14.22,7.28,14.32.83.03,3.28-.62,3.83-1.66,1.35-2.56,1.27-5.72-.22-8.2-1.14-1.9-3.09-4.75,3-6.77,8.6,3.31,2.32,13.89,2.32,13.89,0,0-8.6,12.24,4.96,16.87,23.68-13.97,10.58-50.61,4.96-52.16,4.3-3.87.33-38.14-8.6-46.7,7.28-4.26-11.24-16.24-4.96-21.87,2.64-2.37-8.15-20.58-10.92-20.84,7.28-10.58-27.83-32.13-27.83-32.13,0,0-10.88-13.48-57.51-13.48-8.56,0-12.04-5.5-43.62,5.09-6.2,2.08-11.72,10.6-12.74,11.74.09,1.52-13.11,11.04-16.46,15.38-6.34,8.21-7.98-44.9-8.64-43.58s3.43-17.28,3.43-17.28c1.66-6.89-9.64-14.34-12.57-1.98-.28,1.17-1.67,7.11-2.81,7.94-2.98,2.15.99-30.92-20.67-22.06C-1.76,47.8-.27,52.79,1.74,61.47c2.18,9.43,4.33,11.77,8.12,22.95,2.34,6.89,8.27,29.11,8.27,29.11l8.48,19.72s8.55,11.08,9.76,11.99c5.71,4.3,9.71,11.55,16.95,10.34Z"/>
      <path class="cls-2" d="M81.42,284.32c4.28,1.8,13.73,3.81,20.24,3.45-.39,7.38-.2,31.66-1.94,43.22-.42,2.8.29,8.93-2.5,8.49l-7.13.02c-2.62-.41-7.68-1.22-7.66-3.87.09-10.91-9.09-28.48-3.2-50.28.26-.96,1.27-1.42,2.19-1.03Z"/>
      <path class="cls-2" d="M200.93,284.32c-4.28,1.8-13.73,3.81-20.24,3.45.39,7.38.2,31.66,1.94,43.22.42,2.8-.29,8.93,2.5,8.49l7.13.02c2.62-.41,7.68-1.22,7.66-3.87-.09-10.91,9.09-28.48,3.2-50.28-.26-.96-1.27-1.42-2.19-1.03Z"/>
      <path class="cls-6" d="M185.07,53.3c0,29.16-23.64,52.8-52.8,52.8s-52.8-23.64-52.8-52.8S103.11.5,132.27.5s52.8,23.64,52.8,52.8Z"/>
      <path class="cls-3" d="M170.78,57.27c0,21.27-17.24,38.51-38.51,38.51s-38.51-17.24-38.51-38.51,0-34.43,38.51-34.43,38.51,16.05,38.51,34.43Z"/>
      <path class="cls-1" d="M136.84,39.18c.94-4.41,4.6-7.73,9.06-8.35,3.58-.5,7.88-.38,11.29,1.85,7.19,4.71,9.68,38.7,0,45.65-9.68,6.95-21.34-33.74-20.59-37.96.07-.41.15-.8.23-1.19Z"/>
      <path class="cls-4" d="M159.33,162.73c-7.19,1.51-16.25,2.79-26.74,2.81-10.78.03-20.07-1.27-27.38-2.81l-3.6-38.83c8.08-1.76,18.39-3.29,30.4-3.31,12.24-.02,22.75,1.52,30.93,3.31l-3.6,38.83Z"/>
      <path class="cls-5" d="M222.27,244.13l1.01.46c.5.23.99.49,1.45.79l2.33,1.78c.41.31.8.66,1.16,1.04l1.43,1.51"/>
      <path class="cls-5" d="M88.85,219.54c13.74,2.32,26.73,4.11,45.31,4.16,18.81.05,35.08-1.64,49.05-3.94"/>
      <path class="cls-5" d="M186.23,228.56c-15.71,1.54-33.68,2.82-52.16,2.91-18.13.09-30.98-.65-46.4-1.98"/>
      <polygon class="cls-5" points="146.46 231.2 122.27 231.2 121.71 223.55 146.99 223.46 146.46 231.2"/>
      <path class="cls-7" d="M159.26,282.46c1.13.12,9.11,2.78,32.88-2.48"/>
      <path class="cls-7" d="M89.57,281.94c.88.09,7.1,2.17,25.62-1.93"/>
      <path class="cls-7" d="M91.61,341.99c1.13.12,9.11,2.78,32.88-2.48"/>
      <path class="cls-7" d="M89.46,343c1.13.12,9.11,2.78,32.88-2.48"/>
      <path class="cls-7" d="M163.92,380.22c.87-.1,7.27.58,24.16-7.28"/>
      <path class="cls-7" d="M88.85,371.26c.76.31,5.74,3.77,23.26,4.95"/>
      <path class="cls-7" d="M76.04,390.19c.76.31,5.74,3.77,23.26,4.95"/>
      <path class="cls-7" d="M76.04,391.36c.63.26,4.77,3.13,19.3,4.11"/>
      <path class="cls-7" d="M182.85,399.67c.82-.1,6.86.49,22.71-7.05"/>
      <path class="cls-7" d="M183.42,400.69c.68-.08,5.69.4,18.85-5.85"/>
      <path class="cls-7" d="M159.56,283.85c1.13.12,9.11,2.78,32.88-2.48"/>
      <path class="cls-7" d="M89.53,281.58c.93.28,7.15,3.8,27.83,3.28"/>
      <path class="cls-2" d="M123.46,251.25c2.62,1.73,5.33,3.35,8.1,4.83-2.35-1.63-4.7-3.25-7.06-4.88,4.87,3.46,10.19,6.31,15.77,8.45"/>
      <path class="cls-2" d="M150.44,248.71c-2.73,3.17-6.16,5.74-9.98,7.47"/>
      <path class="cls-2" d="M149.42,251.46c-3.34,2.17-6.82,4.12-10.4,5.86,3.81-2.87,7.61-5.74,11.42-8.61"/>
    </g>
  </g>
</svg>