<?xml version="1.0" encoding="UTF-8"?>
<svg id="Layer_2" data-name="Layer 2" xmlns="http://www.w3.org/2000/svg" viewBox="0 0 285.18 271">
  <defs>
    <style>
      .cls-1 {
        fill: #0f1b79;
      }

      .cls-1, .cls-2 {
        stroke-width: 0px;
      }

      .cls-2 {
        fill: #fff;
      }
    </style>
  </defs>
  <g id="tracés">
    <g>
      <path class="cls-1" d="M2,269v-126.41C2,65.07,65.07,2,142.59,2s140.59,63.07,140.59,140.59v126.41H2Z"/>
      <path class="cls-2" d="M142.59,4c37.02,0,71.82,14.42,98,40.59,26.18,26.18,40.59,60.98,40.59,98v124.41H4v-124.41c0-37.02,14.42-71.82,40.59-98C70.77,18.42,105.57,4,142.59,4M142.59,0h0C63.84,0,0,63.84,0,142.59v128.41h285.18v-128.41C285.18,63.84,221.34,0,142.59,0h0Z"/>
    </g>
  </g>
</svg>