<?xml version="1.0" encoding="UTF-8"?>
<svg id="Layer_2" data-name="Layer 2" xmlns="http://www.w3.org/2000/svg" viewBox="0 0 202.67 398">
  <defs>
    <style>
      .cls-1 {
        fill: #ed0c0c;
      }

      .cls-1, .cls-2, .cls-3, .cls-4, .cls-5, .cls-6, .cls-7 {
        stroke-miterlimit: 10;
      }

      .cls-1, .cls-2, .cls-3, .cls-4, .cls-6, .cls-7 {
        stroke-width: .8px;
      }

      .cls-1, .cls-3, .cls-4, .cls-6 {
        stroke: #2d248a;
      }

      .cls-8, .cls-9, .cls-10, .cls-11, .cls-12 {
        stroke-width: 0px;
      }

      .cls-8, .cls-4, .cls-12 {
        fill: #2d248a;
      }

      .cls-9 {
        fill: #ffbe0b;
      }

      .cls-2 {
        fill: #ffd90d;
        stroke: #000;
      }

      .cls-10 {
        fill: #614ad3;
      }

      .cls-3 {
        fill: none;
      }

      .cls-5 {
        fill: #ff7131;
        stroke-width: .67px;
      }

      .cls-5, .cls-7 {
        stroke: #ffa04a;
      }

      .cls-6 {
        fill: #c33;
      }

      .cls-7 {
        fill: #ff9d11;
      }

      .cls-11 {
        fill: #a8c4f0;
      }

      .cls-12 {
        opacity: .46;
      }
    </style>
  </defs>
  <g id="tracés">
    <g>
      <path class="cls-11" d="M53.73,235.94l-15.07,4.78L.42,254.37l1.06,17,20.04-12.65c4.55-2.73,17.17-8.4,18.06-8.81l13.53-6.33.62-7.64Z"/>
      <path class="cls-11" d="M141.08,236.17l15.39,4.7,45.37,14.45-.55,12.52-16.29-5.86c-9.99-3.74-26.85-10.93-27.74-11.34l-14.93-7.03-1.25-7.43Z"/>
      <path class="cls-11" d="M141.5,246l-15.1-1.81c-.85-.06-14.86-1.15-27.88-1.35-11.19-.17-21.64.52-22.37.57l-22.11,2.19-1.18,12.05,44.55-4.28c.74-.07,1.49-.06,2.23.02l44.55,5.06-2.69-12.45Z"/>
      <path class="cls-11" d="M141.5,239.53l-87.06-.51,2.84-39.92,26.68-5.51c7.23-.69,21.33-.71,28.56-.04l22.78,5.13,6.2,40.84Z"/>
      <g>
        <path class="cls-3" d="M53.59,244.03l-1.18.55c-15.02,6.64-29.32,13.3-35.93,17.24-4.46,2.66-7.69,5.28-10.02,7.1"/>
        <path class="cls-3" d="M142.09,244.15s43.89,19.74,54.12,22.35"/>
        <path class="cls-3" d="M202.27,263.54v-.03c.1-24.32-11.51-57.02-30.13-78.99-4.52-5.34-8.71-10.87-12.29-16.72-13.25-21.66-16.58-27.15-16.58-35.36,0-25.68-7.75-96.85-51.59-131.91,0,0-41,37.41-41,84.92,0,20.66-.8,38.87-1.99,51.46-.65,6.93-48.26,56.83-48.26,111.83,0,7.14-.05,12.27.05,15.83t0,.03"/>
        <path class="cls-3" d="M144.19,258.45c-9.2-2.55-28.19-4.13-45.89-4.19-18.08-.06-35.83,1.29-45.89,4.07l4.87-59.23c8.85-2.76,22.22-5.92,38.75-6.16,17.1-.25,30.97,2.71,40.04,5.32,2.71,15.48,5.42,44.71,8.12,60.19Z"/>
        <path class="cls-4" d="M129.45,56.51c-9-2.2-21.3-4.34-35.99-4.43-15.61-.1-28.6,2.16-37.93,4.43l4.11-10.62c9.45-1.36,20.76-2.38,33.53-2.3,12.14.07,22.93,1.12,32.02,2.48,1.42,3.48,2.83,6.96,4.25,10.44Z"/>
        <path class="cls-12" d="M133.04,67.12c-9-2.2-24.89-4.13-39.58-4.22-15.61-.1-31.69,2.91-41.01,5.19l3.08-11.58c9.45-1.36,22.48-4.44,36.96-4.44,20.1,0,27.86,3.07,36.96,4.44,1.42,3.48,2.17,7.13,3.59,10.61Z"/>
        <path class="cls-10" d="M111.93,123.27c-5.35-.54-11.46-.88-18.19-.78-6.39.1-12.19.58-17.3,1.23v-59.86c5.68-.54,9.24-.82,16.14-.84,7.07-.02,12.36.3,17.34.67.31,9.86.64,19.72.97,29.59.34,10,.68,20,1.04,30Z"/>
        <path class="cls-10" d="M111.93,158.5c-5.35-.54-9.76-.72-16.49-.62-6.39.1-12.19.58-17.3,1.23v-35.6c5.68-.54,10.87-.91,16.04-1.03,7.06-.16,11.54.29,16.52.67.31,9.86.87,25.35,1.22,35.35Z"/>
        <path class="cls-10" d="M112.52,193.56c-5.35-.54-9.76-.72-16.49-.62-6.39.1-12.19.58-17.3,1.23v-35.35c5.68-.54,9.24-.82,16.14-.84,7.07-.02,11.56.24,16.55.61.31,9.86.75,24.98,1.1,34.97Z"/>
        <path class="cls-3" d="M110.71,123.15l32.55,6.6c-10.42-3.32-26.89-7.33-47.46-7.28-20.21.05-36.42,3.99-46.76,7.28"/>
        <path class="cls-3" d="M143.94,165.25c-10.42-3.32-26.89-7.33-47.46-7.28-20.21.05-37.45,4.41-47.8,7.7"/>
        <path class="cls-3" d="M49.02,201.45c10.34-3.3,27.25-8.49,47.46-8.53,20.56-.05,38.81,4.47,49.23,7.79"/>
        <path class="cls-1" d="M78.2,254.96v-.15c-.02-1.4-.02-2.99-.02-4.82,0-1.95.24-4.21.66-6.7.31-1.73.68-3.57,1.16-5.49,4.46-18.65,15.61-44.09,15.61-44.09,7.16,12.33,13.23,31.64,16.72,44.18.56,2.01,1.05,3.83,1.46,5.43.27,1.03.51,1.96.71,2.78.63,2.52.95,5.09.95,7.68v1"/>
        <path class="cls-6" d="M201.84,254.75l-60.75-18.58-1.21-11.78c29.83,8.63,48.16,14.67,60.05,18.19.46,2.3,1.38,7.25,1.9,12.16Z"/>
        <path class="cls-6" d="M55.06,223.67L.77,242.02l-.35,12.35c31.78-11.24,40.18-15.1,53.89-19.15.29-2.29.5-8.03.75-11.55Z"/>
        <rect class="cls-2" x="196.22" y="260.83" width="6.05" height="14.02" rx="2.86" ry="2.86"/>
        <rect class="cls-2" x=".42" y="262.27" width="6.05" height="14.02" rx="2.86" ry="2.86"/>
        <line class="cls-3" x1="48.68" y1="136.91" x2="48.68" y2="225.82"/>
        <line class="cls-3" x1="143.66" y1="136.91" x2="146.69" y2="226.21"/>
        <ellipse class="cls-9" cx="92.75" cy="108.5" rx="5.1" ry="4.56"/>
        <ellipse class="cls-9" cx="94.19" cy="139.41" rx="4.11" ry="3.68"/>
        <ellipse class="cls-9" cx="94.19" cy="167.9" rx="4.11" ry="3.68"/>
        <path class="cls-8" d="M142.34,246c-12.73-1.75-27.57-3.05-44.15-3.16-16.84-.11-31.92,1.04-44.82,2.67l.63-6.46c13.53-.97,28.25-1.54,44.01-1.44,15.58.09,30.12.82,43.5,1.92.28,2.16.56,4.31.83,6.47Z"/>
        <path class="cls-7" d="M55.06,258.45s-34.48,44.58-32.96,68.56c32.5-42.57,38.17-50.34,38.17-50.34,0,0-11.47,28.69-13.13,36.66-1.6,7.67-3.72,20.41.66,31.58,11.05-15.36,15.12-22.63,16.25-37.16,1.13-14.53,6.42-28.04,6.42-28.04-3.97,26.19-.97,46.6,3.02,61.15,6.74,24.57,22.67,55.74,22.67,55.74h0c2.14-21.06,4.28-42.12,6.42-63.17,2.77,13.06,5.54,26.13,8.31,39.19,1.8-9.01,3.61-18.02,5.41-27.03,5.17,8.45,8.19,11.82,8.19,11.82,0,0-10.2-56.42-12.47-66.55,3.42,10.86,7.55,18.63,10.75,23.78,1.3,2.09,3.12,4.84,5.88,8.99,4.08,6.14,7.5,11.15,9.82,14.53.76-30.4-11.34-53.04-11.34-53.04,0,0,17.38,35.13,36.28,46.96.76-33.11-17.01-71.69-21.33-73.63-2.22-.99-44.25-9.36-87.03,0Z"/>
        <path class="cls-5" d="M64.38,262.1s-28.58,36.96-27.33,56.84c26.94-35.29,31.64-41.73,31.64-41.73,0,0-12.25,21.46-13.63,28.06-1.32,6.36-5.32,16.52-1.7,25.78,7.06-13.38,6.66-17.05,12.43-28.55s6.65-26.21,6.65-26.21c-3.29,21.71.68,42.3,3.99,54.36,5.58,20.37,17.75,54.73,17.75,54.73l-1.01-12.29c1.78-17.46,6.38-33.71,8.16-51.17,2.3,10.83,7.03,24,9.33,34.83,1.49-7.47-.24-16.65,1.26-24.11,4.29,7,11.37,18.14,11.37,18.14,0,0-9.81-53.4-11.68-61.8,2.83,9,6.26,15.45,8.91,19.72,1.07,1.73,2.59,4.01,4.87,7.45,3.38,5.09,6.21,9.24,8.15,12.04.63-25.21-9.4-43.97-9.4-43.97,0,0,15.73,13.13,33.92,34.15-4.19-25.48-17.94-54.66-21.53-56.26-1.84-.82-36.68-7.76-72.15,0Z"/>
      </g>
      <path class="cls-11" d="M91.67.53s-7.44,6.82-15.23,17.26c-5.96,7.98-11.76,18.27-16.8,28.1,16.61-3.5,55.39-2.02,64.87-.36-3.16-6.13-7.01-12.22-9.02-16.2C109.35,17.16,91.67.53,91.67.53Z"/>
      <path class="cls-11" d="M109.92,63.68l23.12,3.44s12.61,51.56,10.18,61.97c-6.89-1.36-31.29-5.82-31.29-5.82l-2.01-59.58Z"/>
      <path class="cls-11" d="M76.45,63.68l-23.18,4.21s-2.1,5.94-2.53,14.19c-.82,15.68-.28,39.7-.61,47.01,6.89-1.36,26.31-5.37,26.31-5.37v-60.03Z"/>
      <polygon class="cls-11" points="144.34 164.78 128.82 160.69 111.93 157.97 110.73 123.72 142.84 129.86 144.34 164.78"/>
      <polygon class="cls-11" points="49.04 165.08 63.33 161.21 78.73 158.82 78.03 123.64 49.04 129.75 49.04 165.08"/>
      <path class="cls-11" d="M145.71,200.03l-1.54-34.35s-22.23-6.64-32.73-6.57c.39,9.07,1.09,33.96,1.09,33.96l33.19,6.96Z"/>
      <path class="cls-11" d="M49.04,200.87l.21-35s17.29-4.81,29.48-6.35c-.33,6.08.63,34.15,0,34.18l-29.69,7.16Z"/>
      <polygon class="cls-11" points="49.04 202.06 56.68 199.48 55.06 223.67 49.04 225.06 49.04 202.06"/>
      <polygon class="cls-11" points="145.39 201.22 136.86 198.79 140.07 223.67 146.68 225.69 145.39 201.22"/>
      <path class="cls-11" d="M48.68,225.82l-.66-19.2.66-67.49-22.44,32.86c-8.51,15.04-14.32,27.21-21.63,49.86-.88,2.73-1.32,5.56-1.6,8.39l-1.13,11.29,29.31-10.75"/>
      <path class="cls-11" d="M199.27,241.93l-51.65-16.1-3.42-84.24,17.15,30c2.6,4.89,8.27,9.32,11.56,13.87,7.37,10.19,16.73,26.79,20.17,36.57.74,2.1,1.84,4.08,2.44,6.21l3.74,13.69Z"/>
    </g>
  </g>
</svg>