<?xml version="1.0" encoding="UTF-8"?>
<svg id="Layer_2" data-name="Layer 2" xmlns="http://www.w3.org/2000/svg" viewBox="0 0 280 280">
  <defs>
    <style>
      .cls-1 {
        fill: rgba(116, 15, 8, .75);
      }

      .cls-1, .cls-2 {
        stroke-width: 0px;
      }

      .cls-2 {
        fill: #d5fdec;
      }
    </style>
  </defs>
  <g id="anneaux">
    <g>
      <path class="cls-1" d="M140,280c77.32,0,140-62.68,140-140S217.32,0,140,0,0,62.68,0,140s62.68,140,140,140Z"/>
      <path class="cls-2" d="M38.26,202.2c-12.89.88-22.1-4.03-28.83-12,2.8,7.29,6.37,14.15,10.31,20.79,10.09,3.78,20.82,5.37,33.27-3.56-6.07-2.97-11.53-5.43-14.75-5.22ZM206.59,17.04c.58,4.29-2.47,6.55-9.81,4.75-12.5-3.04-23.48,10.16-29.77,21.2-12.39,21.69-63.54,46.13-63.6,27.32,0-8.89-45.19,11.04-50.95,2.11-5.46-8.43-21.79-5.18-25.14-15.29C12.01,77.87,2.77,102.44.59,128.11c4.93,9.4,11.31,16.78,17.71,19.98,8.62,4.32,48.76,20,54.64,9.99,9.79-16.7,68.45-4.88,67.06-13.67-2.69-16.82,31.77-3.01,44.13-24.69,6.32-11.04,20.07-19.51,32.6-16.47,14.61,3.55,32.63-21.51,31.27-52.31-11.5-13.85-25.56-25.36-41.42-33.89ZM248.23,228.8c-4.44,2.17-8.79,3.83-12.78,4.27-29.41,3.18-35.79,26.25-55.53,22.29-10.17-2.04-24.04,15.89-39.92,16.98-10.48.77-20.9,2.12-31.24,4.03,10.26,2.38,20.74,3.59,31.24,3.63,43.61,0,82.53-19.94,108.23-51.2Z"/>
    </g>
  </g>
</svg>