<?xml version="1.0" encoding="UTF-8"?>
<svg id="Layer_2" data-name="Layer 2" xmlns="http://www.w3.org/2000/svg" viewBox="0 0 268.23 239.83">
  <defs>
    <style>
      .cls-1 {
        fill: #000;
      }

      .cls-1, .cls-2, .cls-3, .cls-4 {
        stroke-width: 0px;
      }

      .cls-2 {
        fill: #dc2f02;
        opacity: .15;
      }

      .cls-5 {
        stroke-width: .5px;
      }

      .cls-5, .cls-6 {
        stroke: #000;
      }

      .cls-5, .cls-6, .cls-7 {
        fill: none;
        stroke-miterlimit: 10;
      }

      .cls-6 {
        stroke-width: .25px;
      }

      .cls-7 {
        stroke: #dc2f02;
        stroke-width: 2px;
      }

      .cls-3 {
        fill: #fff;
      }

      .cls-4 {
        fill: #f48c06;
      }
    </style>
  </defs>
  <g id="planètes">
    <g>
      <g>
        <g>
          <path class="cls-4" d="M134.12,189.48c-7.51,0-14.87-1.24-21.87-3.67-1.73-.6-3.31-1.22-4.85-1.91-8.48-3.7-15.98-9.05-22.3-15.9-8.27-8.96-13.92-19.99-16.33-31.89-.88-4.34-1.32-8.81-1.32-13.29,0-6.89,1.04-13.67,3.1-20.15,3.45-10.91,9.73-20.82,18.16-28.66,5.27-4.91,11.24-8.9,17.75-11.86,3.29-1.51,6.67-2.73,10.06-3.64,5.7-1.56,11.62-2.36,17.6-2.36,5.6,0,11.17.7,16.55,2.07,2.35.6,4.68,1.33,6.92,2.18,8.22,3.09,15.63,7.71,22.04,13.71,8.56,7.98,14.88,18.1,18.28,29.26,1.92,6.27,2.89,12.81,2.89,19.45,0,4.16-.39,8.32-1.15,12.37-2.32,12.4-8.11,23.84-16.77,33.1-7.22,7.75-16.29,13.73-26.24,17.3-.66.24-1.32.46-1.99.68-6.62,2.14-13.52,3.22-20.52,3.22Z"/>
          <path class="cls-3" d="M134.12,57.14c5.52,0,11.01.69,16.31,2.04,2.31.59,4.6,1.31,6.81,2.14,8.09,3.05,15.4,7.59,21.71,13.51,8.43,7.86,14.66,17.83,18,28.82,1.89,6.17,2.84,12.62,2.84,19.16,0,4.1-.38,8.2-1.14,12.18-2.28,12.21-7.99,23.48-16.52,32.6-7.11,7.63-16.05,13.53-25.84,17.04-.65.23-1.3.46-1.96.67-6.52,2.11-13.32,3.17-20.22,3.17-7.4,0-14.65-1.22-21.55-3.62-1.69-.58-3.25-1.2-4.78-1.88-8.34-3.64-15.73-8.91-21.96-15.66-8.14-8.83-13.71-19.69-16.08-31.41-.86-4.28-1.3-8.68-1.3-13.09,0-6.79,1.03-13.46,3.06-19.85,3.4-10.74,9.58-20.51,17.89-28.23,5.19-4.83,11.07-8.76,17.49-11.69,3.23-1.48,6.56-2.69,9.9-3.59,5.61-1.54,11.44-2.32,17.33-2.32M134.12,55.14c-6.18,0-12.17.83-17.86,2.39-3.53.95-6.94,2.2-10.21,3.7-6.66,3.03-12.73,7.11-18.02,12.04-8.44,7.85-14.87,17.83-18.43,29.09-2.05,6.45-3.15,13.32-3.15,20.45,0,4.62.46,9.13,1.34,13.49,2.5,12.34,8.35,23.46,16.57,32.37,6.3,6.83,13.99,12.37,22.63,16.14,1.61.72,3.25,1.36,4.93,1.94,6.95,2.42,14.42,3.73,22.2,3.73,7.27,0,14.27-1.15,20.83-3.27.68-.22,1.35-.45,2.02-.69,10.25-3.68,19.36-9.76,26.63-17.56,8.58-9.18,14.62-20.75,17.02-33.6.77-4.07,1.17-8.26,1.17-12.55,0-6.87-1.02-13.49-2.93-19.74-3.5-11.51-9.98-21.71-18.55-29.7-6.41-6.01-14-10.77-22.37-13.92-2.28-.86-4.63-1.6-7.02-2.21-5.37-1.37-11-2.1-16.8-2.1h0Z"/>
          <path class="cls-7" d="M198.86,103.07c-3.5-11.51-9.98-21.71-18.55-29.7-6.41-6.01-14-10.77-22.37-13.92-2.28-.86-4.63-1.6-7.02-2.21-5.37-1.37-11-2.1-16.8-2.1-6.18,0-12.17.83-17.86,2.39-3.53.95-6.94,2.2-10.21,3.7-6.66,3.03-12.73,7.11-18.02,12.04-8.44,7.85-14.87,17.83-18.43,29.09-2.05,6.45-3.15,13.32-3.15,20.45,0,4.62.46,9.13,1.34,13.49,2.5,12.34,8.35,23.46,16.57,32.37,6.3,6.83,13.99,12.37,22.63,16.14,1.61.72,3.25,1.36,4.93,1.94,6.95,2.42,14.42,3.73,22.2,3.73,7.27,0,14.27-1.15,20.83-3.27.68-.22,1.35-.45,2.02-.69,10.25-3.68,19.36-9.76,26.63-17.56,8.58-9.18,14.62-20.75,17.02-33.6.77-4.07,1.17-8.26,1.17-12.55,0-6.87-1.02-13.49-2.93-19.74Z"/>
        </g>
        <circle class="cls-2" cx="134.12" cy="122.81" r="58.67"/>
      </g>
      <path class="cls-5" d="M83.98,169.84c-15.41,26.94-23.11,43.96-14.15,49.13,8.11,4.69,21.9-6.41,38.34-27.34,1.24-1.57,2.49-3.2,3.75-4.88,6.93-9.2,14.27-20,21.8-31.98,3.47-5.49,6.97-11.23,10.49-17.18h.01c1.63-2.75,3.26-5.55,4.9-8.39,1.84-3.18,3.65-6.33,5.44-9.44,2.49-4.33,4.93-8.59,7.3-12.76.97-1.71,1.93-3.4,2.88-5.07,5.72-10.14,10.99-19.73,15.57-28.56,15.43-29.75,23.06-51,13.85-56.32-8.33-4.81-21.67,8.77-37.89,32.25-1.74,2.53-2.94,4.34-4.76,7.1"/>
      <path class="cls-5" d="M65.6,128.61c-.07.05-.15.11-.22.16-3.3,2.45-5.47,4.11-8.58,6.49C18.98,164.28-3.89,188.07.87,195.5c4.93,7.68,38.09-4.19,82.47-27.98,4.45-2.38,9.01-4.88,13.66-7.5,11.96-6.72,24.55-14.18,37.48-22.26h.01c3.43-2.14,6.87-4.32,10.34-6.54.04-.03.08-.05.12-.08,1.63-1.05,3.24-2.09,4.85-3.13h.01c2.33-1.51,4.63-3.02,6.91-4.53,1.79-1.17,3.56-2.35,5.31-3.52,1.63-1.1,3.25-2.18,4.85-3.27,1-.68,1.99-1.35,2.98-2.03,2.21-1.51,4.4-3.01,6.55-4.51,6.91-4.81,13.54-9.56,19.83-14.2,4.49-3.31,8.82-6.58,12.96-9.78,36.77-28.41,58.86-51.57,54.18-58.89-3.93-6.13-25.86.19-57.13,15.1-4.68,2.23-9.56,4.65-14.63,7.26-3.92,2.01-7.95,4.13-12.08,6.35l-12.94,6.22"/>
      <path class="cls-5" d="M107.17,185.9c.37,2.33.59,3.52,1,5.73,5.46,29.11,14.15,47.95,23.95,47.95s18.94-19.82,24.36-50.23c.17-.93.33-1.88.49-2.83,2.43-14.5,4.1-31.25,4.75-49.31.06-1.62.11-3.25.15-4.9.11-4.07.16-8.21.16-12.4s-.06-8.67-.17-12.91c-.05-1.72-.1-3.41-.16-5.1-.58-15.29-1.89-29.64-3.76-42.45-.52-3.5-1.07-6.89-1.67-10.15C150.83,19.56,142.04.25,132.12.25s-18.2,18.21-23.67,46.49M102.54,137.87v-.05"/>
      <path class="cls-5" d="M135.68,101.68c-4.8-4.99-9.49-9.79-14.04-14.38"/>
      <path class="cls-6" d="M102.54,137.82s-.02.03-.03.05"/>
      <path class="cls-5" d="M121.64,87.3c-8.26-8.3-16.08-15.85-23.3-22.36-3.5-3.16-6.86-6.07-10.09-8.7-16.13-13.23-28.27-19.34-34.09-13.85-6.99,6.59,2.94,23.18,20.91,44.91"/>
      <path class="cls-5" d="M135.68,101.68c4.66,4.85,9.43,9.86,14.27,14.98.17.18.34.36.51.54,3.21,3.4,6.39,6.74,9.5,9.99,1.31,1.35,2.6,2.7,3.87,4.04,9.24,9.59,17.95,18.49,25.72,26.62,25.1,26.28,53.69,58.54,45.43,66.33-7.88,7.45-41.35-17.91-67.12-40.23-.66-.56-.23-.18-.89-.77"/>
      <path class="cls-5" d="M200.03,103.15c28.57,1.88,65.34,5.28,65.48,14.91.14,9.55-37.06,15.04-64.89,17.3-10.65.86-22.77,1.4-35.91,1.77-.99.03-1.99.06-2.99.08-5.67.15-11.5.28-17.5.38h-.01c-5.69.11-11.52.19-17.45.28-1.02,0-2.03.03-3.04.04-7.27.08-14.34.07-21.18-.04h-.03c-12.46-.2-24.13-.71-34.72-1.57-35.32-2.83-58.59-9.43-58.75-20.53-.17-11.41,22.56-12.82,59.24-13.11"/>
      <line class="cls-5" x1="108.45" y1="46.74" x2="107.12" y2="59.56"/>
      <g>
        <circle class="cls-1" cx="150.26" cy="24.42" r="8.34"/>
        <circle class="cls-1" cx="263.27" cy="27.8" r="4.96"/>
        <circle class="cls-1" cx="247.67" cy="128.42" r="8.5"/>
        <circle class="cls-1" cx="134.12" cy="99.55" r="4.25"/>
        <circle class="cls-1" cx="67.84" cy="205.44" r="7.61"/>
      </g>
    </g>
  </g>
</svg>