<?xml version="1.0" encoding="UTF-8"?>
<svg id="Layer_2" data-name="Layer 2" xmlns="http://www.w3.org/2000/svg" viewBox="0 0 483.81 280">
  <defs>
    <style>
      .cls-1 {
        fill: #cc9324;
      }

      .cls-1, .cls-2 {
        stroke-width: 0px;
      }

      .cls-2 {
        fill: #e7b047;
      }
    </style>
  </defs>
  <g id="anneaux">
    <g>
      <path class="cls-1" d="M241.9,280c81.64,0,147.82-62.68,147.82-140S323.54,0,241.9,0,94.08,62.68,94.08,140s66.18,140,147.82,140Z"/>
      <path class="cls-2" d="M134.49,202.2c-13.62.88-23.35-4.03-30.45-12.01,2.96,7.29,6.73,14.15,10.89,20.79,10.66,3.78,21.99,5.37,35.11-3.56-6.4-2.97-12.17-5.43-15.55-5.22ZM312.21,17.05c.62,4.29-2.58,6.55-10.37,4.75-13.2-3.04-24.79,10.16-31.43,21.19-13.09,21.69-67.1,46.13-67.14,27.32-.01-8.89-47.72,11.04-53.82,2.11-5.76-8.43-22.99-5.18-26.55-15.29-16.14,20.74-25.9,45.31-28.2,70.98,5.21,9.4,11.94,16.78,18.69,19.98,9.12,4.32,51.5,20,57.7,9.99,10.33-16.7,72.28-4.88,70.8-13.67-2.83-16.82,33.55-3.01,46.62-24.69,6.66-11.04,21.19-19.51,34.41-16.47,15.43,3.55,34.46-21.51,33.02-52.31-12.14-13.85-26.99-25.36-43.73-33.89ZM356.18,228.8c-4.67,2.17-9.27,3.84-13.48,4.27-31.07,3.18-37.79,26.25-58.64,22.3-10.74-2.04-25.39,15.89-42.16,16.98-11.07.77-22.07,2.12-32.98,4.03,10.82,2.37,21.88,3.59,32.98,3.63,46.04,0,87.15-19.94,114.27-51.2Z"/>
      <path class="cls-1" d="M314.13,17.91c13.11,6.99,25.01,15.83,35.31,26.22,34.43-2.06,55.43,5.62,53.67,23.26-.91,9.23-8.09,20.19-19.78,31.88-29.14,29.08-87.21,62.79-153.02,86.43-45.74,16.43-86.5,24.87-115.64,25.32-29.65.46-47.25-7.37-45.64-23.6,1.05-10.67,10.39-23.64,25.6-37.4-.26-3.34-.54-6.64-.54-10.01,0-11.1,1.51-21.85,4.09-32.22C38.7,146.83,0,189.84,0,223.38c0,45.65,71.36,59.67,169.68,38.71,24.5-5.3,48.63-12.07,72.22-20.28,53.91-18.58,103.52-43.2,143.75-69.61,59.45-39.05,98.15-82.06,98.15-115.6,0-45.64-71.35-59.67-169.68-38.7Z"/>
      <path class="cls-2" d="M80.95,140.67c-10.1,9.24-18.84,19.73-25.99,31.18-6.77,11.15-12.54,23.71-11.67,34.97.49,11.21,9.43,17.88,21.54,20.97,12.08,2.97,25.5,3.76,39.17,3,27.34-1.21,54.44-5.44,80.74-12.63,26.6-6.61,52.4-16.04,77.62-26.65,50.61-21.46,97.76-49.59,140.05-83.55,5.09-4.36,10.66-8.5,15.54-12.91,4.6-4.41,8.94-9.33,12.58-14.36,7.22-10.05,11.42-21.82,4.63-30.79-6.77-9.11-20.67-14.07-33.91-16.64-13.56-2.45-27.79-3.01-41.88-1.45,13.71-3.47,28.16-5.17,42.69-4.14,14.24,1.2,30.02,3.93,41.58,15.98,5.67,5.98,8.28,14.99,7.24,22.86-.79,8-4.05,15.06-7.78,21.4-3.84,6.35-8.16,12.11-13.06,17.65-4.87,5.29-9.8,10.17-14.82,15.23-40.53,39.2-89.02,70.88-141.84,93.72-52.75,22.52-110.22,38.11-169.49,36.05-14.59-.53-29.82-1.74-44.73-7.17-7.38-2.74-14.96-6.77-20.73-13.3-5.8-6.44-8.72-14.77-8.14-23.22,1.35-15.88,9.73-28.17,18.65-38.96,9.06-10.64,19.87-19.84,32.02-27.23Z"/>
    </g>
  </g>
</svg>