<?xml version="1.0" encoding="UTF-8"?>
<svg id="Layer_2" data-name="Layer 2" xmlns="http://www.w3.org/2000/svg" version="1.1" viewBox="0 0 289 289">
  <defs>
    <style>
      .cls-1 {
        fill: #d5fdec;
        stroke-width: 5px;
      }

      .cls-1, .cls-2 {
        stroke: #fff;
        stroke-miterlimit: 10;
      }

      .cls-2 {
        fill: #740f08;
        opacity: .8;
        stroke-width: 9px;
      }
    </style>
  </defs>
  <g id="anneaux">
    <g>
      <path class="cls-2" d="M144.5,284.5c77.3,0,140-62.7,140-140S221.8,4.5,144.5,4.5,4.5,67.2,4.5,144.5s62.7,140,140,140Z"/>
      <path class="cls-1" d="M42.8,206.7c-12.9.9-22.1-4-28.8-12,2.8,7.3,6.4,14.1,10.3,20.8,10.1,3.8,20.8,5.4,33.3-3.6-6.1-3-11.5-5.4-14.8-5.2h0ZM211.1,21.5c.6,4.3-2.5,6.5-9.8,4.8-12.5-3-23.5,10.2-29.8,21.2-12.4,21.7-63.5,46.1-63.6,27.3,0-8.9-45.2,11-51,2.1-5.5-8.4-21.8-5.2-25.1-15.3-15.3,20.7-24.5,45.3-26.7,71,4.9,9.4,11.3,16.8,17.7,20,8.6,4.3,48.8,20,54.6,10,9.8-16.7,68.4-4.9,67.1-13.7-2.7-16.8,31.8-3,44.1-24.7,6.3-11,20.1-19.5,32.6-16.5,14.6,3.6,32.6-21.5,31.3-52.3-11.5-13.9-25.6-25.4-41.4-33.9h0ZM252.7,233.3c-4.4,2.2-8.8,3.8-12.8,4.3-29.4,3.2-35.8,26.2-55.5,22.3-10.2-2-24,15.9-39.9,17-10.5.8-20.9,2.1-31.2,4,10.3,2.4,20.7,3.6,31.2,3.6,43.6,0,82.5-19.9,108.2-51.2h0Z"/>
    </g>
  </g>
</svg>