<?xml version="1.0" encoding="UTF-8"?>
<svg id="Layer_2" data-name="Layer 2" xmlns="http://www.w3.org/2000/svg" viewBox="0 0 137.34 137.34">
  <defs>
    <style>
      .cls-1 {
        opacity: .15;
      }

      .cls-1, .cls-2 {
        fill: #dc2f02;
      }

      .cls-1, .cls-2, .cls-3, .cls-4 {
        stroke-width: 0px;
      }

      .cls-5 {
        opacity: .29;
      }

      .cls-6 {
        fill: none;
        stroke: #dc2f02;
        stroke-miterlimit: 10;
        stroke-width: 2px;
      }

      .cls-3 {
        fill: #fff;
      }

      .cls-4 {
        fill: #f48c06;
      }
    </style>
  </defs>
  <g id="planètes">
    <g>
      <g>
        <g>
          <path class="cls-4" d="M68.67,135.34c-7.51,0-14.87-1.24-21.87-3.67-1.72-.59-3.31-1.22-4.85-1.91-8.48-3.7-15.98-9.05-22.3-15.91-8.27-8.96-13.91-19.99-16.32-31.89-.88-4.34-1.32-8.81-1.32-13.29,0-6.89,1.04-13.67,3.1-20.15,3.45-10.91,9.73-20.82,18.16-28.66,5.27-4.91,11.24-8.9,17.75-11.86,3.28-1.51,6.67-2.73,10.06-3.64,5.7-1.56,11.62-2.36,17.6-2.36,5.6,0,11.17.7,16.55,2.07,2.35.6,4.68,1.33,6.91,2.18,8.22,3.09,15.63,7.71,22.04,13.71,8.56,7.98,14.88,18.1,18.28,29.26,1.92,6.27,2.89,12.81,2.89,19.45,0,4.16-.39,8.32-1.15,12.36-2.32,12.4-8.11,23.84-16.77,33.1-7.22,7.75-16.29,13.73-26.24,17.3-.66.24-1.32.46-1.99.68-6.62,2.14-13.52,3.22-20.52,3.22Z"/>
          <path class="cls-3" d="M68.67,3c5.52,0,11.01.69,16.31,2.04,2.31.59,4.6,1.31,6.81,2.14,8.09,3.05,15.4,7.59,21.71,13.51,8.43,7.86,14.66,17.83,18,28.82,1.89,6.17,2.84,12.62,2.84,19.16,0,4.1-.38,8.2-1.14,12.18-2.28,12.21-7.99,23.48-16.52,32.6-7.11,7.63-16.05,13.53-25.84,17.04-.65.23-1.3.46-1.96.67-6.52,2.11-13.32,3.17-20.22,3.17-7.4,0-14.65-1.22-21.55-3.62-1.69-.58-3.25-1.2-4.78-1.88-8.34-3.64-15.73-8.91-21.96-15.66-8.14-8.83-13.71-19.69-16.08-31.41-.86-4.28-1.3-8.68-1.3-13.09,0-6.79,1.03-13.46,3.06-19.85,3.4-10.74,9.58-20.51,17.89-28.23,5.19-4.83,11.07-8.76,17.49-11.69,3.23-1.48,6.56-2.69,9.9-3.59,5.61-1.54,11.44-2.32,17.33-2.32M68.67,1c-6.18,0-12.17.83-17.86,2.39-3.53.95-6.94,2.2-10.21,3.7-6.66,3.03-12.73,7.11-18.02,12.04-8.44,7.85-14.87,17.83-18.43,29.09-2.05,6.45-3.15,13.32-3.15,20.45,0,4.62.46,9.13,1.34,13.49,2.5,12.34,8.35,23.46,16.57,32.37,6.3,6.83,13.99,12.37,22.63,16.14,1.61.72,3.25,1.36,4.93,1.94,6.95,2.42,14.42,3.73,22.2,3.73,7.27,0,14.27-1.15,20.83-3.27.68-.22,1.35-.45,2.02-.69,10.25-3.68,19.36-9.76,26.63-17.56,8.58-9.18,14.62-20.75,17.02-33.6.77-4.07,1.17-8.26,1.17-12.55,0-6.87-1.02-13.49-2.93-19.74-3.5-11.51-9.98-21.71-18.55-29.7-6.41-6.01-14-10.77-22.37-13.92-2.28-.86-4.63-1.6-7.02-2.21-5.37-1.37-11-2.1-16.8-2.1h0Z"/>
          <path class="cls-6" d="M133.41,48.93c-3.5-11.51-9.98-21.71-18.55-29.7-6.41-6.01-14-10.77-22.37-13.92-2.28-.86-4.63-1.6-7.02-2.21-5.37-1.37-11-2.1-16.8-2.1-6.18,0-12.17.83-17.86,2.39-3.53.95-6.94,2.2-10.21,3.7-6.66,3.03-12.73,7.11-18.02,12.04-8.44,7.85-14.87,17.83-18.43,29.09-2.05,6.45-3.15,13.32-3.15,20.45,0,4.62.46,9.13,1.34,13.49,2.5,12.34,8.35,23.46,16.57,32.37,6.3,6.83,13.99,12.37,22.63,16.14,1.61.72,3.25,1.36,4.93,1.94,6.95,2.42,14.42,3.73,22.2,3.73,7.27,0,14.27-1.15,20.83-3.27.68-.22,1.35-.45,2.02-.69,10.25-3.68,19.36-9.76,26.63-17.56,8.58-9.18,14.62-20.75,17.02-33.6.77-4.07,1.17-8.26,1.17-12.55,0-6.87-1.02-13.49-2.93-19.74Z"/>
        </g>
        <circle class="cls-1" cx="68.67" cy="68.67" r="58.67"/>
      </g>
      <g class="cls-5">
        <path class="cls-2" d="M35.94,56.8c9.75,1.15,19.39.68,28.98-1.37,1.89-.4,1.09-3.29-.8-2.89-9.35,1.99-18.7,2.38-28.19,1.26-1.91-.23-1.9,2.78,0,3h0Z"/>
      </g>
      <g class="cls-5">
        <path class="cls-2" d="M68.51,24.78c1.78,1.99,3.57,3.99,5.35,5.98,1.29,1.44,3.41-.69,2.12-2.12-1.78-1.99-3.57-3.99-5.35-5.98-1.29-1.44-3.41.69-2.12,2.12h0Z"/>
      </g>
      <g class="cls-5">
        <path class="cls-2" d="M92.95,40.92c.28.7.52,1.41.7,2.15.2.83.23,1.11.28,1.78.11,1.56,1.3,3.08,3,3,1.53-.07,3.12-1.32,3-3-.14-1.9-.49-3.74-1.19-5.52-.58-1.45-2.03-2.63-3.69-2.1-1.41.46-2.72,2.13-2.1,3.69h0Z"/>
      </g>
      <g class="cls-5">
        <path class="cls-2" d="M93.21,74.09l-7.57,5.68c-1.29.97-1.96,2.59-1.08,4.1.75,1.28,2.8,2.05,4.1,1.08,2.52-1.89,5.05-3.79,7.57-5.68,1.29-.97,1.96-2.59,1.08-4.1-.75-1.28-2.8-2.05-4.1-1.08h0Z"/>
      </g>
      <g class="cls-5">
        <path class="cls-2" d="M60.58,97.15c3.86,0,3.87-6,0-6s-3.87,6,0,6h0Z"/>
      </g>
      <g class="cls-5">
        <path class="cls-2" d="M57.45,81.17c1.93,0,1.93-3,0-3s-1.93,3,0,3h0Z"/>
      </g>
      <g class="cls-5">
        <path class="cls-2" d="M28.14,66.26c-.28.2-.51.39-.68.7s-.25.63-.25.97.09.65.24.95.41.52.69.71c.3.21.81.25,1.16.15s.73-.36.9-.69c.18-.35.28-.77.15-1.16l-.15-.36c-.13-.23-.31-.4-.54-.54l-.03-.02.3.23s-.05-.04-.07-.07l.23.3s-.03-.05-.05-.09l.15.36s-.03-.08-.04-.13l.05.4s0-.09,0-.13l-.05.4s.02-.09.04-.13l-.15.36s.03-.06.05-.09l-.23.3s.04-.05.07-.07l-.3.23.03-.02c.33-.23.58-.5.69-.9.1-.36.05-.84-.15-1.16s-.51-.6-.9-.69-.83-.08-1.16.15h0Z"/>
      </g>
      <g class="cls-5">
        <path class="cls-2" d="M85.62,105.43c1.58.11,3.16-.05,4.7-.44,1.87-.47,1.08-3.37-.8-2.89-1.29.33-2.57.43-3.91.34-1.93-.13-1.92,2.87,0,3h0Z"/>
      </g>
      <g class="cls-5">
        <path class="cls-2" d="M100.52,57.32c4.43-.93,8.6-2.59,12.48-4.92,1.65-.99.15-3.59-1.51-2.59-3.67,2.21-7.56,3.73-11.76,4.62-1.89.4-1.09,3.29.8,2.89h0Z"/>
      </g>
      <g class="cls-5">
        <path class="cls-2" d="M29.87,26.81c1.67,4.28,1.66,8.79-.28,12.99-.8,1.74,1.78,3.27,2.59,1.51,2.26-4.91,2.55-10.24.58-15.3-.69-1.78-3.6-1.01-2.89.8h0Z"/>
      </g>
      <g class="cls-5">
        <path class="cls-2" d="M25.53,75.98c-5.71-6.13-11.91-11.7-18.58-16.77-1.54-1.17-3.03,1.44-1.51,2.59,6.46,4.91,12.44,10.37,17.97,16.3,1.32,1.42,3.44-.71,2.12-2.12h0Z"/>
      </g>
      <g class="cls-5">
        <path class="cls-2" d="M28.94,101.88c4.3-2.09,8.57-4.26,12.79-6.5,1.71-.91.19-3.5-1.51-2.59-4.23,2.24-8.49,4.41-12.79,6.5-1.74.84-.22,3.43,1.51,2.59h0Z"/>
      </g>
      <g class="cls-5">
        <path class="cls-2" d="M65.93,121.5c5.7-2.32,11.57-3.46,17.73-3.4,1.93.02,1.93-2.98,0-3-6.42-.07-12.58,1.08-18.53,3.5-1.76.72-.99,3.62.8,2.89h0Z"/>
      </g>
      <g class="cls-5">
        <path class="cls-2" d="M112.49,99.61c1.48,3.15,4.06,5.69,7.24,7.11,1.75.78,3.28-1.81,1.51-2.59-2.77-1.23-4.87-3.28-6.16-6.03-.82-1.75-3.41-.23-2.59,1.51h0Z"/>
      </g>
      <g class="cls-5">
        <path class="cls-2" d="M122.95,48.74c.45-2.99.91-5.98,1.36-8.97.29-1.89-2.6-2.7-2.89-.8-.45,2.99-.91,5.98-1.36,8.97-.29,1.89,2.6,2.7,2.89.8h0Z"/>
      </g>
    </g>
  </g>
</svg>