<?xml version="1.0" encoding="UTF-8"?>
<svg id="Layer_2" data-name="Layer 2" xmlns="http://www.w3.org/2000/svg" viewBox="0 0 289 289">
  <defs>
    <style>
      .cls-1 {
        fill: #ce450a;
        stroke-width: 9px;
      }

      .cls-1, .cls-2 {
        stroke: #fff;
        stroke-miterlimit: 10;
      }

      .cls-2 {
        fill: gray;
        stroke-width: 5px;
      }
    </style>
  </defs>
  <g id="anneaux">
    <g>
      <path class="cls-1" d="M144.5,284.5c77.32,0,140-62.68,140-140S221.82,4.5,144.5,4.5,4.5,67.18,4.5,144.5s62.68,140,140,140Z"/>
      <path class="cls-2" d="M42.77,206.7c-12.89.88-22.11-4.03-28.84-12,2.8,7.29,6.38,14.15,10.32,20.79,10.1,3.78,20.83,5.37,33.25-3.56-6.06-2.97-11.52-5.43-14.73-5.22ZM211.08,21.55c.59,4.29-2.45,6.55-9.82,4.75-12.5-3.04-23.47,10.16-29.77,21.19-12.4,21.69-63.55,46.13-63.59,27.32-.01-8.89-45.19,11.04-50.96,2.11-5.46-8.43-21.77-5.18-25.15-15.29-15.29,20.74-24.53,45.31-26.71,70.98,4.94,9.4,11.31,16.78,17.7,19.98,8.64,4.32,48.78,20,54.64,9.99,9.78-16.7,68.45-4.88,67.05-13.67-2.68-16.82,31.77-3.01,44.16-24.69,6.31-11.04,20.07-19.51,32.58-16.47,14.61,3.55,32.64-21.51,31.27-52.31-11.5-13.85-25.57-25.36-41.42-33.89ZM252.73,233.3c-4.43,2.17-8.78,3.84-12.76,4.27-29.43,3.18-35.79,26.25-55.54,22.29-10.17-2.04-24.05,15.89-39.93,16.98-10.48.77-20.91,2.12-31.24,4.03,10.25,2.38,20.72,3.59,31.24,3.63,43.61,0,82.54-19.94,108.23-51.2Z"/>
    </g>
  </g>
</svg>