<?xml version="1.0" encoding="UTF-8"?>
<svg id="Layer_2" data-name="Layer 2" xmlns="http://www.w3.org/2000/svg" viewBox="0 0 1274.16 641.84">
  <defs>
    <style>
      .cls-1 {
        fill: #7a430f;
      }

      .cls-1, .cls-2, .cls-3, .cls-4, .cls-5, .cls-6, .cls-7, .cls-8, .cls-9, .cls-10, .cls-11, .cls-12, .cls-13, .cls-14, .cls-15, .cls-16, .cls-17, .cls-18 {
        stroke-width: 0px;
      }

      .cls-2 {
        fill: #f38503;
      }

      .cls-19 {
        stroke: red;
        stroke-linecap: round;
        stroke-width: 1.54px;
      }

      .cls-19, .cls-20 {
        fill: none;
      }

      .cls-3 {
        fill: rgba(116, 15, 8, .75);
      }

      .cls-4 {
        fill: #ff9600;
      }

      .cls-5 {
        fill: #d5fdec;
      }

      .cls-6 {
        fill: #f9cb95;
      }

      .cls-20 {
        stroke: #fff;
        stroke-miterlimit: 10;
      }

      .cls-7 {
        fill: #08c3c3;
      }

      .cls-8 {
        fill: gray;
      }

      .cls-9 {
        fill: #5076ff;
      }

      .cls-10 {
        fill: #c41308;
      }

      .cls-11 {
        fill: #cc9324;
      }

      .cls-12 {
        fill: #fff;
      }

      .cls-13 {
        fill: #3948b6;
      }

      .cls-14 {
        fill: #ce450a;
      }

      .cls-15 {
        fill: #ff7410;
      }

      .cls-16 {
        fill: #03e5f3;
      }

      .cls-17 {
        fill: #e7b047;
      }

      .cls-18 {
        fill: #39b655;
      }
    </style>
  </defs>
  <g id="anneaux">
    <path class="cls-12" d="M676.2,228.06c31.46,0,59.53,5.69,81.19,16.46,22,10.94,35.63,26.34,39.42,44.53,10.1,48.59-53.27,103-141.27,121.29-19.32,4.02-38.59,6.05-57.29,6.05-31.46,0-59.54-5.69-81.2-16.46-22.01-10.94-35.64-26.34-39.42-44.53-10.1-48.59,53.27-103,141.27-121.29,19.32-4.02,38.59-6.05,57.29-6.05h0M676.19,227.06c-18.28,0-37.68,1.95-57.49,6.07-88.68,18.43-152.28,73.27-142.05,122.47,7.94,38.21,58.06,61.79,121.59,61.79,18.28,0,37.68-1.95,57.49-6.07,88.68-18.43,152.28-73.27,142.05-122.47-7.94-38.21-58.06-61.79-121.59-61.79h0Z"/>
    <path class="cls-12" d="M631.72,209.56c8.22,0,16.6.2,24.9.6,136.53,6.56,245.03,65.32,241.87,130.98-1.42,29.59-25.6,56.89-68.07,76.86-42.39,19.93-99.34,30.91-160.35,30.91-8.23,0-16.6-.2-24.9-.6-66.25-3.18-127.92-18.63-173.65-43.49-22.18-12.06-39.39-25.67-51.14-40.47-12.1-15.23-17.85-31.06-17.08-47.02,1.42-29.59,25.6-56.89,68.07-76.86,42.39-19.93,99.34-30.91,160.36-30.91h0M631.71,208.61c-125.85,0-226.37,46.45-229.37,108.67-3.19,66.28,105.51,125.37,242.77,131.97,8.41.4,16.73.6,24.95.6,125.85,0,226.37-46.45,229.37-108.67,3.19-66.28-105.51-125.37-242.77-131.97-8.41-.4-16.73-.6-24.95-.6h0Z"/>
    <circle class="cls-4" cx="638.34" cy="319.96" r="69"/>
    <path class="cls-12" d="M699.58,160.86c32.24,0,63.1,2.89,91.72,8.59,28.17,5.61,53.46,13.79,75.17,24.33,21.9,10.62,39.58,23.36,52.55,37.85,13.37,14.95,21.45,31.47,24.01,49.12,3.08,21.2-1.89,42.94-14.77,64.61-12.48,21-31.82,41.06-57.49,59.6-52.87,38.21-126.57,65.72-207.52,77.46-27.58,4-55.19,6.03-82.07,6.03-32.25,0-63.11-2.89-91.73-8.59-28.17-5.61-53.46-13.79-75.18-24.33-21.9-10.62-39.59-23.36-52.56-37.85-13.38-14.95-21.46-31.47-24.02-49.12-12.62-86.99,112.89-177.46,279.78-201.67,27.57-4,55.18-6.03,82.08-6.03h.01M699.56,159.89c-26.43,0-54.03,1.95-82.21,6.04-167.68,24.33-293.31,115.11-280.59,202.77,10.58,72.93,113.56,120.72,244.44,120.72,26.43,0,54.03-1.95,82.21-6.04,167.68-24.33,293.31-115.11,280.59-202.77-10.58-72.93-113.56-120.72-244.44-120.72h0Z"/>
    <path class="cls-12" d="M602.91,119.06c16.44,0,33.21.66,49.84,1.96,48.34,3.78,94.81,12.77,138.13,26.73,41.82,13.48,78.96,30.99,110.37,52.06,31.37,21.04,55.45,44.55,71.56,69.89,16.64,26.16,24,53.14,21.89,80.17-1.93,24.73-11.74,48.26-29.16,69.95-16.86,20.99-40.32,39.63-69.71,55.4-59.56,31.95-139.33,49.54-224.62,49.54-16.45,0-33.23-.66-49.86-1.96-48.34-3.78-94.81-12.77-138.13-26.73-41.82-13.48-78.96-30.99-110.37-52.06-31.37-21.04-55.45-44.55-71.56-69.89-16.64-26.16-24-53.14-21.89-80.17,1.93-24.73,11.74-48.26,29.16-69.95,16.86-20.99,40.32-39.63,69.71-55.4,59.56-31.95,139.33-49.54,224.63-49.54h0M602.89,118.06c-175.56,0-316.51,73.82-324.48,175.81-8.72,111.5,144.79,214.44,342.86,229.92,16.9,1.32,33.56,1.96,49.94,1.96,175.56,0,316.51-73.82,324.48-175.81,8.72-111.5-144.79-214.44-342.86-229.92-16.9-1.32-33.56-1.96-49.94-1.96h0Z"/>
    <path class="cls-12" d="M637.08,91.92c58.25,0,114.75,6.07,167.93,18.05,51.35,11.56,97.47,28.12,137.07,49.2,39.55,21.06,70.6,45.57,92.27,72.85,22.38,28.17,33.73,58.09,33.73,88.9s-11.35,60.73-33.73,88.9c-21.67,27.28-52.72,51.79-92.27,72.85-39.6,21.08-85.71,37.63-137.07,49.2-53.19,11.98-109.69,18.05-167.93,18.05s-114.75-6.07-167.93-18.05c-51.36-11.56-97.47-28.12-137.07-49.2-39.55-21.06-70.6-45.57-92.27-72.85-22.38-28.17-33.73-58.09-33.73-88.9s11.35-60.73,33.73-88.9c21.67-27.28,52.72-51.79,92.27-72.85,39.6-21.08,85.71-37.63,137.07-49.2,53.19-11.98,109.69-18.05,167.93-18.05M637.08,90.92c-238.59,0-432,102.97-432,230s193.41,230,432,230,432-102.97,432-230-193.41-230-432-230h0Z"/>
    <path class="cls-12" d="M637.08,62.92c67.02,0,132.04,6.84,193.24,20.33,59.1,13.03,112.16,31.67,157.73,55.42,45.52,23.72,81.25,51.33,106.2,82.07,25.77,31.75,38.83,65.45,38.83,100.18s-13.07,68.44-38.83,100.18c-24.95,30.73-60.68,58.35-106.2,82.07-45.57,23.75-98.63,42.39-157.73,55.42-61.2,13.49-126.22,20.33-193.24,20.33s-132.04-6.84-193.24-20.33c-59.1-13.03-112.16-31.67-157.73-55.42-45.52-23.72-81.25-51.33-106.2-82.07-25.77-31.75-38.83-65.45-38.83-100.18s13.07-68.44,38.83-100.18c24.95-30.73,60.68-58.35,106.2-82.07,45.57-23.75,98.63-42.39,157.73-55.42,61.2-13.49,126.22-20.33,193.24-20.33M637.08,61.92c-274.49,0-497,115.96-497,259s222.51,259,497,259,497-115.96,497-259S911.57,61.92,637.08,61.92h0Z"/>
    <path class="cls-12" d="M542.88,30.8v1c42.29,0,85.66,2.68,128.91,7.97,74.68,9.13,146.21,25.55,212.59,48.78,64.1,22.43,120.72,50.25,168.29,82.67,47.53,32.4,83.62,67.75,107.28,105.09,24.44,38.57,34.45,77.58,29.76,115.94-4.02,32.84-18.72,63.72-43.71,91.78-24.2,27.17-57.46,51.12-98.86,71.16-41.07,19.88-88.94,35.35-142.27,45.98-54.32,10.82-112.78,16.31-173.78,16.31-42.32,0-85.71-2.68-128.96-7.97-74.68-9.13-146.21-25.55-212.59-48.78-64.1-22.43-120.72-50.25-168.29-82.67-47.53-32.4-83.62-67.75-107.28-105.09-24.44-38.57-34.45-77.58-29.76-115.94,4.02-32.84,18.72-63.72,43.71-91.78,24.2-27.17,57.46-51.11,98.86-71.16,41.07-19.88,88.94-35.35,142.27-45.98,54.31-10.83,112.78-16.32,173.78-16.32l.05-1M542.84,30.8c-247.67.01-443.1,91.02-459.62,226.12-19.31,157.88,212.96,316.19,518.78,353.6,44.13,5.4,87.32,7.98,129.08,7.98,247.67,0,443.1-91.02,459.62-226.12,19.31-157.88-212.96-316.19-518.78-353.6-44.13-5.4-87.32-7.98-129.08-7.98h0Z"/>
    <ellipse class="cls-20" cx="637.08" cy="320.92" rx="638.5" ry="316.5" transform="translate(-26.15 58.28) rotate(-5.13)"/>
    <g>
      <path class="cls-9" d="M94.17,556.38c16.41,0,29.71-13.3,29.71-29.71s-13.3-29.71-29.71-29.71-29.71,13.3-29.71,29.71,13.3,29.71,29.71,29.71Z"/>
      <path class="cls-13" d="M72.58,539.87c-2.74.19-4.69-.86-6.12-2.55.6,1.55,1.35,3,2.19,4.41,2.14.8,4.42,1.14,7.06-.76-1.29-.63-2.45-1.15-3.12-1.11ZM108.3,500.58c.12.91-.52,1.39-2.08,1.01-2.65-.64-4.98,2.16-6.32,4.5-2.63,4.6-13.48,9.79-13.49,5.8,0-1.89-9.59,2.34-10.81.45-1.16-1.79-4.62-1.1-5.34-3.24-3.24,4.4-5.2,9.61-5.67,15.06,1.05,1.99,2.4,3.56,3.76,4.24,1.83.92,10.35,4.24,11.59,2.12,2.07-3.54,14.52-1.04,14.23-2.9-.57-3.57,6.74-.64,9.37-5.24,1.34-2.34,4.26-4.14,6.91-3.49,3.1.75,6.92-4.56,6.64-11.1-2.44-2.94-5.42-5.38-8.79-7.19ZM117.13,545.51c-.94.46-1.86.81-2.71.91-6.25.68-7.6,5.57-11.78,4.73-2.16-.43-5.1,3.37-8.47,3.6-2.22.16-4.44.45-6.63.85,2.17.5,4.4.76,6.63.77,9.25,0,17.51-4.23,22.96-10.86Z"/>
    </g>
    <g>
      <path class="cls-9" d="M938.17,337.38c16.41,0,29.71-13.3,29.71-29.71s-13.3-29.71-29.71-29.71-29.71,13.3-29.71,29.71,13.3,29.71,29.71,29.71Z"/>
      <path class="cls-18" d="M916.58,320.87c-2.74.19-4.69-.86-6.12-2.55.6,1.55,1.35,3,2.19,4.41,2.14.8,4.42,1.14,7.06-.76-1.29-.63-2.45-1.15-3.12-1.11ZM952.3,281.58c.12.91-.52,1.39-2.08,1.01-2.65-.64-4.98,2.16-6.32,4.5-2.63,4.6-13.48,9.79-13.49,5.8,0-1.89-9.59,2.34-10.81.45-1.16-1.79-4.62-1.1-5.34-3.24-3.24,4.4-5.2,9.61-5.67,15.06,1.05,1.99,2.4,3.56,3.76,4.24,1.83.92,10.35,4.24,11.59,2.12,2.07-3.54,14.52-1.04,14.23-2.9-.57-3.57,6.74-.64,9.37-5.24,1.34-2.34,4.26-4.14,6.91-3.49,3.1.75,6.92-4.56,6.64-11.1-2.44-2.94-5.42-5.38-8.79-7.19ZM961.13,326.51c-.94.46-1.86.81-2.71.91-6.25.68-7.6,5.57-11.78,4.73-2.16-.43-5.1,3.37-8.47,3.6-2.22.16-4.44.45-6.63.85,2.17.5,4.4.76,6.63.77,9.25,0,17.51-4.23,22.96-10.86Z"/>
    </g>
    <g>
      <path class="cls-14" d="M290.17,361.38c16.41,0,29.71-13.3,29.71-29.71s-13.3-29.71-29.71-29.71-29.71,13.3-29.71,29.71,13.3,29.71,29.71,29.71Z"/>
      <path class="cls-8" d="M268.58,344.87c-2.74.19-4.69-.86-6.12-2.55.59,1.55,1.35,3,2.19,4.41,2.14.8,4.42,1.14,7.06-.76-1.29-.63-2.45-1.15-3.12-1.11ZM304.3,305.58c.12.91-.52,1.39-2.08,1.01-2.65-.64-4.98,2.16-6.32,4.5-2.63,4.6-13.48,9.79-13.49,5.8,0-1.89-9.59,2.34-10.81.45-1.16-1.79-4.62-1.1-5.34-3.24-3.24,4.4-5.21,9.61-5.67,15.06,1.05,1.99,2.4,3.56,3.76,4.24,1.83.92,10.35,4.24,11.59,2.12,2.08-3.54,14.53-1.04,14.23-2.9-.57-3.57,6.74-.64,9.37-5.24,1.34-2.34,4.26-4.14,6.91-3.49,3.1.75,6.92-4.56,6.64-11.1-2.44-2.94-5.42-5.38-8.79-7.19ZM313.13,350.51c-.94.46-1.86.81-2.71.91-6.24.68-7.59,5.57-11.78,4.73-2.16-.43-5.1,3.37-8.47,3.6-2.22.16-4.44.45-6.63.85,2.17.5,4.4.76,6.63.77,9.25,0,17.51-4.23,22.96-10.86Z"/>
    </g>
    <g>
      <path class="cls-10" d="M792.17,294.52c8.2,0,14.85-6.65,14.85-14.85s-6.65-14.85-14.85-14.85-14.85,6.65-14.85,14.85,6.65,14.85,14.85,14.85Z"/>
      <path class="cls-2" d="M781.38,286.27c-1.37.09-2.35-.43-3.06-1.27.3.77.68,1.5,1.1,2.21,1.07.4,2.21.57,3.53-.38-.64-.32-1.22-.58-1.56-.55ZM799.23,266.62c.06.46-.26.69-1.04.5-1.33-.32-2.49,1.08-3.16,2.25-1.32,2.3-6.74,4.89-6.75,2.9,0-.94-4.79,1.17-5.41.22-.58-.89-2.31-.55-2.67-1.62-1.62,2.2-2.6,4.81-2.83,7.53.52,1,1.2,1.78,1.88,2.12.92.46,5.18,2.12,5.8,1.06,1.04-1.77,7.26-.52,7.11-1.45-.29-1.78,3.37-.32,4.68-2.62.67-1.17,2.13-2.07,3.46-1.75,1.55.38,3.46-2.28,3.32-5.55-1.22-1.47-2.71-2.69-4.39-3.6ZM803.65,289.09c-.47.23-.93.41-1.35.45-3.12.34-3.8,2.78-5.89,2.37-1.08-.22-2.55,1.69-4.24,1.8-1.11.08-2.22.22-3.31.43,1.09.25,2.2.38,3.31.38,4.63,0,8.76-2.12,11.48-5.43Z"/>
    </g>
    <g>
      <path class="cls-1" d="M417.17,338.38c16.41,0,29.71-13.3,29.71-29.71s-13.3-29.71-29.71-29.71-29.71,13.3-29.71,29.71,13.3,29.71,29.71,29.71Z"/>
      <path class="cls-6" d="M395.58,321.87c-2.73.19-4.69-.86-6.12-2.55.6,1.55,1.36,3,2.19,4.41,2.14.8,4.42,1.14,7.06-.76-1.29-.63-2.45-1.15-3.13-1.11ZM431.3,282.58c.12.91-.52,1.39-2.09,1.01-2.65-.64-4.98,2.16-6.31,4.5-2.63,4.6-13.49,9.79-13.49,5.8-.01-1.89-9.59,2.34-10.82.45-1.16-1.79-4.62-1.1-5.33-3.24-3.25,4.4-5.21,9.61-5.67,15.06,1.05,1.99,2.4,3.56,3.75,4.24,1.84.92,10.35,4.24,11.6,2.12,2.07-3.54,14.52-1.04,14.23-2.9-.57-3.57,6.74-.64,9.37-5.24,1.34-2.34,4.25-4.14,6.91-3.49,3.1.75,6.93-4.56,6.64-11.1-2.44-2.94-5.43-5.38-8.79-7.19ZM440.13,327.51c-.94.46-1.86.81-2.7.91-6.25.68-7.6,5.57-11.79,4.73-2.16-.43-5.1,3.37-8.47,3.6-2.22.16-4.44.45-6.63.85,2.18.5,4.4.76,6.63.77,9.25,0,17.51-4.23,22.96-10.86Z"/>
    </g>
    <g>
      <path class="cls-15" d="M638.34,384.13c35.44,0,64.17-28.73,64.17-64.17s-28.73-64.17-64.17-64.17-64.17,28.73-64.17,64.17,28.73,64.17,64.17,64.17Z"/>
      <path class="cls-19" d="M700.05,316.87v1.54"/>
      <path class="cls-19" d="M576.62,306.7l.4-1.49"/>
      <path class="cls-19" d="M689.25,315.33h7.71"/>
      <path class="cls-19" d="M586.65,310.98l-7.45-2"/>
      <path class="cls-19" d="M676.91,304.53h1.54"/>
      <path class="cls-19" d="M595.78,324.61c-.17-.05-1.05-.28-1.5-.4"/>
      <path class="cls-19" d="M673.82,319.96v1.54"/>
      <path class="cls-19" d="M602.76,310.5c.09-.34.25-.9.4-1.49"/>
      <path class="cls-19" d="M612.11,361.62v4.63"/>
      <path class="cls-19" d="M673.14,286.24l1.2-4.47"/>
      <path class="cls-19" d="M610.56,353.9c1.2-2.01,1.84-4.18,3.09-6.17"/>
      <path class="cls-19" d="M672.65,294.09c-1.68,1.64-2.87,3.56-4.58,5.16"/>
      <path class="cls-19" d="M615.19,360.07v3.09"/>
      <path class="cls-19" d="M669.76,286.93c.28-1,.54-1.97.8-2.98"/>
      <path class="cls-19" d="M616.73,372.42l1.54,1.54"/>
      <path class="cls-19" d="M671.48,274.61l-1.1-1.89"/>
      <path class="cls-19" d="M667.91,264.07c-1.54-.41-2.96-.79-4.47-1.2"/>
      <path class="cls-19" d="M629.08,361.62c-.2-1.54-1.03-3.11-1.54-4.63"/>
      <path class="cls-19" d="M656.76,281.85c-.22,1.54.2,3.27.29,4.87"/>
      <path class="cls-19" d="M625.99,353.9c1.91-1.37,4.15-1.3,6.17-1.54"/>
      <path class="cls-19" d="M657.75,290.1c-2.21.83-4.35.18-6.37-.11"/>
      <path class="cls-19" d="M633.71,352.36h1.54"/>
      <path class="cls-19" d="M649.89,289.59l-1.5-.4"/>
      <path class="cls-19" d="M638.34,366.25c.15.82,2.1,1.18,3.09,1.54"/>
      <path class="cls-19" d="M649.01,274.98c.06-.83-1.73-1.69-2.58-2.29"/>
      <path class="cls-19" d="M650.68,372.42h1.54"/>
      <path class="cls-19" d="M638.69,265.82l-1.5-.4"/>
      <path class="cls-19" d="M641.42,318.42v1.54"/>
      <path class="cls-19" d="M633.65,320.38l.4-1.49"/>
      <path class="cls-19" d="M641.42,338.47h1.54"/>
      <path class="cls-19" d="M638.84,301.01l-1.5-.4"/>
      <path class="cls-19" d="M649.14,336.93c1.03.33,2.05,1.01,3.09,1.54"/>
      <path class="cls-19" d="M630.99,300.5c-.91-.58-1.73-1.51-2.58-2.29"/>
      <path class="cls-19" d="M678.45,340.02c0,.6.42.98,1.54,1.54"/>
      <path class="cls-19" d="M603.48,289.93c.15-.58-.15-1.05-1.1-1.89"/>
      <path class="cls-19" d="M670.74,343.1c-1.11-1.44-1.94-3.17-3.09-4.63"/>
      <path class="cls-19" d="M611.72,288.95c.71,1.68,1.05,3.56,1.79,5.27"/>
      <path class="cls-19" d="M664.57,333.85c-.46-.53-1.03-1.03-1.54-1.54"/>
      <path class="cls-19" d="M615.28,299.49c.32.63.74,1.26,1.1,1.89"/>
      <path class="cls-19" d="M678.81,285.47v.62"/>
      <path class="cls-19" d="M668.21,283.6h6.85"/>
      <path class="cls-19" d="M654.17,272.37c.28-.91,1.74-.62,2.5-.62"/>
      <path class="cls-19" d="M650.73,287.97c.68.42.76,1.13.94,1.87"/>
      <path class="cls-19" d="M586.17,331.95v5.3"/>
      <path class="cls-19" d="M584.92,323.53c.97-2.04,1.48-4.23,2.5-6.24"/>
      <path class="cls-19" d="M589.9,329.76c.19,1.37.31,2.68.31,4.06"/>
      <path class="cls-19" d="M592.09,343.18l.93,1.87"/>
      <path class="cls-19" d="M597.39,352.85c1.84,0,3.52-.32,5.31-.62"/>
      <path class="cls-19" d="M603.94,331.95c-.12-1.56-.63-3.15-.94-4.68"/>
      <path class="cls-19" d="M601.44,322.9c2.13-.83,4.61-.79,6.87-.94"/>
      <path class="cls-19" d="M609.25,321.97l.93.31"/>
      <path class="cls-19" d="M613.62,336c.15,1.49,2.33,2.15,3.43,2.81"/>
      <path class="cls-19" d="M627.03,343.8l1.87-1.25"/>
      <path class="cls-19" d="M632.64,325.09v.94"/>
      <path class="cls-19" d="M633.26,316.66v-.31"/>
      <path class="cls-19" d="M617.35,286.41v2.18"/>
      <path class="cls-19" d="M603.64,305.12c.22.2.35.22.62.31"/>
      <path class="cls-19" d="M617.04,306.68h1.25"/>
      <path class="cls-19" d="M625.16,306.37c1.25.07,2.5.2,3.73.31"/>
      <path class="cls-19" d="M656.97,309.49c0,.61.08.99.31,1.56"/>
      <path class="cls-19" d="M653.86,318.22c-.46.06-.32.58-.32.94"/>
      <path class="cls-19" d="M648.24,312.61c-1.36-1.65-2.36-3.63-3.75-5.3"/>
      <path class="cls-19" d="M641.07,302.31c-.29-.53-.63-1.04-.94-1.56"/>
      <path class="cls-19" d="M631.08,290.77v.94"/>
      <path class="cls-19" d="M618.29,272.99c.19,1.37.25,2.75.62,4.06"/>
      <path class="cls-19" d="M610.18,267.69c-.52,1-.97,1.73-1.25,2.81"/>
      <path class="cls-19" d="M603.33,276.74c0,.65-.43,1.27-.63,1.87"/>
      <path class="cls-19" d="M593.02,287.65c.08.77.6,1.51.94,2.18"/>
      <path class="cls-19" d="M593.02,295.76c-.51-.26,1.88-2.23,2.19-2.5"/>
      <path class="cls-19" d="M628.89,270.5c-.02.69-.14,1.22-.31,1.87"/>
      <path class="cls-19" d="M630.14,265.2c0-1.38.31-2.69.31-4.05"/>
      <path class="cls-19" d="M639.82,261.14c3.04-.36,5.97-.82,9.04-.94"/>
      <path class="cls-19" d="M633.58,277.36c-.85,1.58.25,3.75.62,5.3"/>
      <path class="cls-19" d="M639.18,282.04c.08.58.32.78.63,1.25"/>
      <path class="cls-19" d="M620.79,323.53c.03-.31.43-.69.62-.94"/>
      <path class="cls-19" d="M612.68,318.53c1.79.08,3.32.69,5,1.25"/>
      <path class="cls-19" d="M621.72,315.1c.46-.41,1.02-.66,1.56-.94"/>
      <path class="cls-19" d="M627.03,319.16c0,1.8-.08,3.55.31,5.3"/>
      <path class="cls-19" d="M630.14,328.52h.94"/>
      <path class="cls-19" d="M640.13,326.33c.22-.94,2.07-1.5,2.81-1.87"/>
      <path class="cls-19" d="M651.36,323.84c-.2,2.22-1.25,3.23-2.81,4.68"/>
      <path class="cls-19" d="M637.01,331.01c-.06.6-.8.91-1.25,1.25"/>
      <path class="cls-19" d="M628.28,337.25c0,1.24.28,2.24.62,3.43"/>
      <path class="cls-19" d="M644.8,348.17h.63"/>
      <path class="cls-19" d="M661.34,339.12c1.37-1.89,2.53-3.92,3.73-5.93"/>
      <path class="cls-19" d="M672.25,314.17c-.63-.07-.88-.82-1.2-1.28-1.87-2.7-4.07-5.05-6.28-7.45"/>
      <path class="cls-19" d="M670.69,294.52h2.81"/>
      <path class="cls-19" d="M685.98,295.76c1.37,0,1.57,2.81,1.87,3.74"/>
      <path class="cls-19" d="M688.48,303.25c0,.71-.06,1.23-.32,1.87"/>
      <path class="cls-19" d="M656.97,299.82h1.56"/>
      <path class="cls-19" d="M646.36,301.69l-.31.31"/>
      <path class="cls-19" d="M684.11,325.09c1.06,1.2-3.58,1.75-4.06,1.87"/>
      <path class="cls-19" d="M658.53,322.59c-.29-.04-.22-.1-.31-.31"/>
      <path class="cls-19" d="M673.5,328.52c.89,2.31,1.85,4.02,3.44,5.93"/>
      <path class="cls-19" d="M680.36,336c.96.12-.19,2.76-.31,3.12"/>
      <path class="cls-19" d="M671.32,350.04c0,.71-.31,1.25-.63,1.87"/>
      <path class="cls-19" d="M654.47,356.59c-.03.29-.09.21-.31.31"/>
      <path class="cls-19" d="M647.93,355.65c-.62.67-1.08,1.42-1.57,2.18"/>
      <path class="cls-19" d="M649.49,361.58h1.87"/>
      <path class="cls-19" d="M656.67,361.89c1.48,0,1.23-3.36,1.23-4.37"/>
      <path class="cls-19" d="M657.9,353.47c.54-.12.73-.81.94-1.25"/>
      <path class="cls-19" d="M663.52,352.22c.05,1.15.63,1.96.63,3.12"/>
      <path class="cls-19" d="M669.44,364.39c.89,0,1.64-.12,2.5-.31"/>
      <path class="cls-19" d="M679.12,355.34c.94-.1,1.45-1.53,1.87-2.18"/>
      <path class="cls-19" d="M686.92,346.61c.51-1.13.73-2.22.93-3.43"/>
      <path class="cls-19" d="M627.03,370c-.51-.44-.28-1.61-.31-2.18"/>
      <path class="cls-19" d="M616.43,353.78v-2.5"/>
      <path class="cls-19" d="M616.1,345.36c-.11-1.86-1.84-2.49-3.43-2.81"/>
      <path class="cls-19" d="M613.62,336.31v-.31"/>
      <path class="cls-19" d="M611.12,326.96c-.09-1.04-.77-1.92-1.25-2.81"/>
    </g>
    <g>
      <path class="cls-11" d="M154.17,278.26c22.97,0,41.59-18.62,41.59-41.59s-18.62-41.59-41.59-41.59-41.59,18.62-41.59,41.59,18.62,41.59,41.59,41.59Z"/>
      <path class="cls-17" d="M123.95,255.15c-3.83.26-6.57-1.2-8.57-3.57.83,2.17,1.89,4.2,3.06,6.18,3,1.12,6.19,1.59,9.88-1.06-1.8-.88-3.42-1.61-4.38-1.55ZM173.95,200.14c.17,1.28-.73,1.94-2.92,1.41-3.71-.9-6.97,3.02-8.84,6.3-3.68,6.44-18.88,13.7-18.89,8.12,0-2.64-13.43,3.28-15.14.63-1.62-2.5-6.47-1.54-7.47-4.54-4.54,6.16-7.29,13.46-7.93,21.09,1.47,2.79,3.36,4.99,5.26,5.93,2.57,1.28,14.49,5.94,16.23,2.97,2.9-4.96,20.34-1.45,19.92-4.06-.8-5,9.44-.89,13.12-7.33,1.88-3.28,5.96-5.79,9.68-4.89,4.34,1.05,9.7-6.39,9.29-15.54-3.42-4.12-7.59-7.53-12.3-10.07ZM186.32,263.05c-1.31.65-2.61,1.14-3.79,1.27-8.74.94-10.63,7.8-16.5,6.62-3.02-.61-7.14,4.72-11.86,5.04-3.11.23-6.21.63-9.28,1.2,3.04.71,6.16,1.07,9.28,1.08,12.95,0,24.52-5.92,32.15-15.21Z"/>
      <path class="cls-11" d="M174.49,200.4c3.69,2.08,7.04,4.7,9.93,7.79,9.69-.61,15.59,1.67,15.1,6.91-.26,2.74-2.28,6-5.57,9.47-8.2,8.64-24.54,18.65-43.05,25.67-12.87,4.88-24.34,7.39-32.53,7.52-8.34.14-13.29-2.19-12.84-7.01.29-3.17,2.92-7.02,7.2-11.11-.07-.99-.15-1.97-.15-2.97,0-3.3.42-6.49,1.15-9.57-16.73,11.6-27.62,24.38-27.62,34.34,0,13.56,20.07,17.73,47.74,11.5,6.89-1.57,13.68-3.59,20.32-6.02,15.17-5.52,29.12-12.83,40.44-20.68,16.73-11.6,27.61-24.38,27.61-34.34,0-13.56-20.07-17.73-47.74-11.5Z"/>
      <path class="cls-17" d="M108.89,236.87c-2.84,2.75-5.3,5.86-7.31,9.26-1.91,3.31-3.53,7.04-3.28,10.39.14,3.33,2.65,5.31,6.06,6.23,3.4.88,7.18,1.12,11.02.89,7.69-.36,15.32-1.62,22.72-3.75,7.48-1.96,14.74-4.76,21.84-7.92,14.24-6.38,27.5-14.73,39.4-24.82,1.43-1.3,3-2.52,4.37-3.83,1.3-1.31,2.52-2.77,3.54-4.27,2.03-2.99,3.21-6.48,1.3-9.15-1.91-2.71-5.81-4.18-9.54-4.94-3.81-.73-7.82-.89-11.78-.43,3.86-1.03,7.92-1.54,12.01-1.23,4.01.36,8.45,1.17,11.7,4.75,1.6,1.78,2.33,4.45,2.04,6.79-.22,2.38-1.14,4.47-2.19,6.36-1.08,1.89-2.29,3.6-3.67,5.24-1.37,1.57-2.76,3.02-4.17,4.52-11.4,11.64-25.04,21.05-39.9,27.84-14.84,6.69-31.01,11.32-47.68,10.71-4.11-.16-8.39-.52-12.58-2.13-2.08-.81-4.21-2.01-5.83-3.95-1.63-1.91-2.45-4.39-2.29-6.9.38-4.72,2.74-8.37,5.25-11.57,2.55-3.16,5.59-5.89,9.01-8.09Z"/>
    </g>
    <g>
      <path class="cls-7" d="M1157.17,481.32c19.69,0,35.65-15.96,35.65-35.65s-15.96-35.65-35.65-35.65-35.65,15.96-35.65,35.65,15.96,35.65,35.65,35.65Z"/>
      <path class="cls-16" d="M1131.27,461.51c-3.28.22-5.63-1.03-7.34-3.06.71,1.86,1.62,3.6,2.63,5.29,2.57.96,5.3,1.37,8.47-.91-1.54-.76-2.93-1.38-3.75-1.33ZM1174.12,414.36c.15,1.09-.62,1.67-2.5,1.21-3.18-.77-5.98,2.59-7.58,5.4-3.16,5.52-16.18,11.75-16.19,6.96,0-2.26-11.51,2.81-12.98.54-1.39-2.15-5.54-1.32-6.4-3.89-3.89,5.28-6.25,11.54-6.8,18.07,1.26,2.39,2.88,4.27,4.51,5.09,2.2,1.1,12.42,5.09,13.91,2.54,2.49-4.25,17.43-1.24,17.07-3.48-.68-4.28,8.09-.77,11.24-6.29,1.61-2.81,5.11-4.97,8.3-4.19,3.72.9,8.31-5.48,7.96-13.32-2.93-3.53-6.51-6.46-10.55-8.63ZM1184.73,468.28c-1.13.55-2.24.98-3.25,1.09-7.49.81-9.11,6.68-14.14,5.68-2.59-.52-6.12,4.05-10.17,4.32-2.67.2-5.32.54-7.95,1.03,2.61.61,5.28.92,7.95.92,11.1,0,21.02-5.08,27.56-13.04Z"/>
      <path class="cls-7" d="M1174.59,414.58c3.16,1.78,6.03,4.03,8.51,6.68,8.3-.52,13.37,1.43,12.94,5.92-.22,2.35-1.95,5.14-4.77,8.12-7.03,7.4-21.03,15.99-36.9,22.01-11.03,4.18-20.86,6.33-27.89,6.45-7.15.12-11.39-1.88-11.01-6.01.25-2.72,2.51-6.02,6.17-9.52-.06-.85-.13-1.69-.13-2.55,0-2.83.36-5.56.99-8.2-14.34,9.94-23.67,20.89-23.67,29.43,0,11.62,17.21,15.19,40.92,9.86,5.91-1.35,11.73-3.07,17.42-5.16,13-4.73,24.96-11,34.66-17.72,14.34-9.94,23.67-20.89,23.67-29.43,0-11.62-17.21-15.19-40.92-9.85Z"/>
      <path class="cls-16" d="M1118.36,445.84c-2.44,2.35-4.54,5.02-6.27,7.94-1.63,2.84-3.02,6.04-2.81,8.9.12,2.85,2.27,4.55,5.19,5.34,2.91.76,6.15.96,9.45.76,6.59-.31,13.13-1.39,19.47-3.22,6.41-1.68,12.64-4.08,18.72-6.79,12.2-5.47,23.57-12.63,33.77-21.27,1.23-1.11,2.57-2.16,3.75-3.29,1.11-1.12,2.16-2.38,3.03-3.66,1.74-2.56,2.75-5.56,1.12-7.84-1.63-2.32-4.98-3.58-8.18-4.24-3.27-.62-6.7-.77-10.1-.37,3.31-.88,6.79-1.32,10.29-1.05,3.43.31,7.24,1,10.03,4.07,1.37,1.52,2,3.82,1.75,5.82-.19,2.04-.98,3.83-1.88,5.45-.93,1.62-1.97,3.08-3.15,4.49-1.17,1.35-2.36,2.59-3.57,3.88-9.77,9.98-21.47,18.05-34.2,23.86-12.72,5.73-26.58,9.7-40.87,9.18-3.52-.13-7.19-.44-10.79-1.83-1.78-.7-3.61-1.72-5-3.39-1.4-1.64-2.1-3.76-1.96-5.91.33-4.04,2.35-7.17,4.5-9.92,2.18-2.71,4.79-5.05,7.72-6.93Z"/>
    </g>
    <g>
      <path class="cls-3" d="M1051.17,345.17c27.89,0,50.5-22.61,50.5-50.5s-22.61-50.5-50.5-50.5-50.5,22.61-50.5,50.5,22.61,50.5,50.5,50.5Z"/>
      <path class="cls-5" d="M1014.47,317.1c-4.65.32-7.97-1.45-10.4-4.33,1.01,2.63,2.3,5.1,3.72,7.5,3.64,1.37,7.51,1.94,12-1.28-2.19-1.07-4.16-1.96-5.32-1.88ZM1075.19,250.32c.21,1.55-.89,2.36-3.54,1.71-4.51-1.1-8.47,3.66-10.74,7.65-4.47,7.82-22.92,16.64-22.94,9.86,0-3.21-16.3,3.98-18.38.76-1.97-3.04-7.86-1.87-9.07-5.52-5.52,7.48-8.85,16.34-9.64,25.6,1.78,3.39,4.08,6.05,6.39,7.21,3.11,1.56,17.59,7.22,19.71,3.6,3.53-6.03,24.69-1.76,24.19-4.93-.97-6.07,11.46-1.09,15.92-8.91,2.28-3.98,7.24-7.04,11.76-5.94,5.27,1.28,11.77-7.76,11.28-18.87-4.15-5-9.22-9.15-14.94-12.23ZM1090.21,326.7c-1.6.78-3.17,1.38-4.61,1.54-10.61,1.15-12.91,9.47-20.03,8.04-3.67-.74-8.67,5.73-14.4,6.12-3.78.28-7.54.76-11.27,1.45,3.7.86,7.48,1.3,11.27,1.31,15.73,0,29.77-7.19,39.04-18.47Z"/>
    </g>
  </g>
</svg>