<?xml version="1.0" encoding="UTF-8"?>
<svg id="Layer_2" data-name="Layer 2" xmlns="http://www.w3.org/2000/svg" viewBox="0 0 490.35 299.65">
  <defs>
    <style>
      .cls-1 {
        fill: #08c3c3;
      }

      .cls-1, .cls-2 {
        stroke-width: 0px;
      }

      .cls-2 {
        fill: #03e5f3;
      }
    </style>
  </defs>
  <g id="anneaux">
    <g>
      <path class="cls-1" d="M245.17,299.65c82.74,0,149.82-67.08,149.82-149.82S327.92,0,245.17,0,95.35,67.08,95.35,149.82s67.08,149.82,149.82,149.82Z"/>
      <path class="cls-2" d="M136.3,216.38c-13.8.94-23.66-4.32-30.87-12.85,3,7.8,6.83,15.15,11.04,22.25,10.8,4.05,22.29,5.74,35.59-3.81-6.49-3.18-12.33-5.81-15.76-5.59ZM316.43,18.24c.63,4.6-2.62,7-10.51,5.09-13.38-3.25-25.12,10.87-31.86,22.68-13.26,23.21-68,49.37-68.05,29.24-.01-9.51-48.36,11.81-54.54,2.26-5.84-9.02-23.3-5.55-26.92-16.36-16.36,22.2-26.25,48.49-28.58,75.96,5.28,10.06,12.1,17.96,18.94,21.38,9.25,4.62,52.2,21.41,58.48,10.69,10.47-17.88,73.26-5.23,71.76-14.63-2.87-18,34-3.22,47.25-26.42,6.75-11.81,21.48-20.88,34.87-17.62,15.64,3.8,34.93-23.02,33.47-55.98-12.31-14.83-27.36-27.14-44.33-36.27ZM361,244.85c-4.74,2.33-9.4,4.11-13.66,4.57-31.5,3.4-38.31,28.09-59.43,23.86-10.89-2.19-25.74,17.01-42.73,18.17-11.21.82-22.37,2.27-33.43,4.31,10.96,2.54,22.18,3.85,33.43,3.88,46.67,0,88.33-21.34,115.82-54.79Z"/>
      <path class="cls-1" d="M318.38,19.17c13.29,7.48,25.35,16.94,35.78,28.06,34.9-2.2,56.18,6.01,54.4,24.9-.92,9.88-8.2,21.6-20.05,34.11-29.53,31.12-88.39,67.19-155.09,92.49-46.36,17.58-87.67,26.62-117.2,27.1-30.05.49-47.89-7.89-46.26-25.26,1.06-11.42,10.54-25.3,25.94-40.03-.26-3.57-.55-7.1-.55-10.72,0-11.88,1.53-23.38,4.15-34.48C39.23,157.14,0,203.16,0,239.05c0,48.85,72.32,63.86,171.97,41.43,24.84-5.67,49.29-12.92,73.2-21.7,54.64-19.88,104.92-46.23,145.69-74.49,60.26-41.79,99.48-87.81,99.48-123.71,0-48.84-72.32-63.86-171.97-41.41Z"/>
      <path class="cls-2" d="M82.04,150.54c-10.24,9.89-19.1,21.12-26.34,33.37-6.86,11.94-12.71,25.37-11.82,37.42.49,11.99,9.55,19.14,21.83,22.44,12.24,3.18,25.85,4.02,39.71,3.21,27.71-1.29,55.18-5.83,81.83-13.52,26.95-7.08,53.11-17.16,78.66-28.52,51.29-22.97,99.08-53.07,141.95-89.41,5.15-4.67,10.8-9.09,15.74-13.81,4.67-4.72,9.07-9.99,12.75-15.37,7.31-10.76,11.57-23.35,4.69-32.95-6.86-9.75-20.94-15.06-34.36-17.81-13.74-2.62-28.16-3.22-42.45-1.56,13.89-3.71,28.54-5.53,43.26-4.43,14.43,1.29,30.43,4.2,42.14,17.11,5.74,6.4,8.39,16.04,7.34,24.46-.8,8.56-4.1,16.11-7.88,22.91-3.9,6.8-8.27,12.96-13.24,18.89-4.93,5.66-9.94,10.89-15.02,16.29-41.08,41.95-90.22,75.85-143.76,100.3-53.46,24.1-111.72,40.78-171.78,38.58-14.79-.56-30.22-1.86-45.34-7.68-7.48-2.93-15.16-7.24-21.01-14.23-5.88-6.89-8.84-15.81-8.25-24.85,1.37-16.99,9.86-30.15,18.9-41.69,9.18-11.39,20.14-21.23,32.45-29.14Z"/>
    </g>
  </g>
</svg>