<?xml version="1.0" encoding="UTF-8"?>
<svg id="Layer_2" data-name="Layer 2" xmlns="http://www.w3.org/2000/svg" viewBox="0 0 1361.03 694.58">
  <defs>
    <style>
      .cls-1 {
        stroke: #ff006e;
        stroke-miterlimit: 10;
        stroke-width: 4px;
      }

      .cls-1, .cls-2 {
        fill: none;
      }

      .cls-2 {
        stroke: red;
        stroke-linecap: round;
      }

      .cls-3 {
        fill: #ff006e;
      }

      .cls-3, .cls-4, .cls-5 {
        stroke-width: 0px;
      }

      .cls-4 {
        fill: #5076ff;
      }

      .cls-5 {
        fill: #39b655;
      }
    </style>
  </defs>
  <g id="anneaux">
    <path class="cls-2" d="M696.74,11.5h3"/>
    <path class="cls-1" d="M1360.99,2C247.73,26.84,195.57,100.23,178.49,207.5c-19.91,125.02,54.12,252,143.58,322.76,12.82,10.14,142.48,112.71,198.92,72.74,70.05-49.61,30.92-313.01-114.5-394.5C226.44,107.61-22.76,376.14,3.99,443c25.32,63.3,327.47-92.68,671,38,143.96,54.76,177.5,134.5,180.5,213.5"/>
    <g>
      <path class="cls-4" d="M286.49,534c105.76,0,191.5-85.74,191.5-191.5s-85.74-191.5-191.5-191.5-191.5,85.74-191.5,191.5,85.74,191.5,191.5,191.5Z"/>
      <path class="cls-5" d="M147.33,427.57c-17.64,1.2-30.25-5.52-39.45-16.42,3.84,9.97,8.72,19.36,14.11,28.44,13.81,5.18,28.49,7.34,45.49-4.87-8.29-4.07-15.76-7.43-20.15-7.15ZM377.56,174.31c.81,5.87-3.35,8.95-13.43,6.5-17.1-4.15-32.1,13.9-40.72,28.99-16.96,29.67-86.92,63.1-86.98,37.37-.02-12.16-61.82,15.1-69.71,2.88-7.46-11.53-29.78-7.09-34.4-20.92-20.91,28.37-33.55,61.98-36.53,97.09,6.76,12.86,15.47,22.96,24.21,27.33,11.82,5.91,66.72,27.36,74.74,13.66,13.38-22.85,93.64-6.68,91.72-18.7-3.67-23.01,43.46-4.12,60.4-33.77,8.63-15.1,27.45-26.68,44.57-22.53,19.98,4.85,44.64-29.42,42.78-71.56-15.74-18.95-34.97-34.69-56.66-46.36ZM434.52,463.96c-6.05,2.97-12.02,5.25-17.46,5.84-40.26,4.35-48.96,35.9-75.97,30.5-13.91-2.79-32.9,21.74-54.61,23.23-14.33,1.05-28.6,2.89-42.73,5.51,14.01,3.25,28.35,4.91,42.73,4.96,59.65,0,112.9-27.28,148.04-70.04Z"/>
    </g>
    <path class="cls-3" d="M184.54,173.6c-1.63,4.76-2.95,9.62-4.13,14.51-1.78,7.37-3.21,14.83-4.35,22.33-1.46,9.58-2.47,19.23-3.04,28.91-.67,11.43-.72,22.89-.17,34.32.63,12.89,2.03,25.75,4.21,38.48,2.4,14.05,5.76,27.94,10.06,41.53,4.73,14.97,10.61,29.58,17.52,43.67,7.58,15.46,16.43,30.28,26.36,44.34,11.02,15.6,23.34,30.28,36.67,43.95,15.09,15.47,31.48,29.65,48.74,42.64,4.54,3.42,9.15,6.76,13.81,10.02,1.59,1.11,3.09-1.49,1.51-2.59-18.13-12.69-35.42-26.59-51.47-41.85-14.21-13.52-27.46-28.09-39.35-43.7-10.58-13.89-20.11-28.59-28.37-43.97-7.53-14.03-14.01-28.62-19.31-43.64-4.8-13.61-8.65-27.56-11.52-41.71-2.6-12.82-4.38-25.8-5.36-38.84-.87-11.67-1.11-23.39-.7-35.09.35-9.99,1.16-19.96,2.46-29.87,1.04-7.91,2.4-15.78,4.12-23.57,1.21-5.49,2.59-10.94,4.28-16.31.29-.92.59-1.84.9-2.76.63-1.83-2.27-2.62-2.89-.8h0Z"/>
  </g>
</svg>